<?xml version="1.0" encoding="UTF-8" standalone="no"?>
<!-- Created with Inkscape (http://www.inkscape.org/) -->

<svg
   width="155.19917mm"
   height="19.119881mm"
   viewBox="0 0 155.19917 19.11988"
   version="1.1"
   id="svg5"
   xmlns="http://www.w3.org/2000/svg"
   xmlns:svg="http://www.w3.org/2000/svg">
  <defs
     id="defs2" />
  <g
     id="layer1"
     transform="translate(-40.62114,-109.9037)">
    <g
       aria-label="SHOP BY AGE"
       id="text11685"
       style="font-size:22.5778px;font-family:Montserrat;-inkscape-font-specification:Montserrat;fill:#68a1ff;stroke:#ffffff;stroke-width:1.25;paint-order:stroke fill markers">
      <g
         id="path18201">
        <path
           style="color:#000000;-inkscape-font-specification:'Inter Heavy';fill:#ffffff;stroke:none;-inkscape-stroke:none"
           d="m 48.804687,110.4043 c -1.369165,0 -2.609745,0.23123 -3.705078,0.70898 h -0.002 c -1.085556,0.47602 -1.969151,1.16053 -2.605469,2.04297 -0.638781,0.88823 -0.957083,1.94825 -0.951171,3.10352 -0.0045,1.41614 0.484841,2.64092 1.451171,3.50195 h 0.002 l 0.002,0.002 c 0.794723,0.69855 1.858014,1.17038 3.076172,1.51172 H 41.12114 l 0.0039,0.62695 c 0.0057,1.46153 0.319984,2.72084 0.984375,3.72657 l 0.002,0.002 v 0.002 c 0.658736,0.98212 1.598218,1.71702 2.757813,2.17969 1.152773,0.45764 2.478008,0.67773 3.966796,0.67773 1.4475,0 2.715394,-0.20245 3.796875,-0.6289 1.085218,-0.42593 1.963044,-1.07014 2.574219,-1.92578 0.61659,-0.86321 0.919942,-1.91943 0.925781,-3.10157 v -0.004 -0.006 c -0.0059,-0.68762 -0.117798,-1.33795 -0.341796,-1.93945 l -0.002,-0.002 c -0.222522,-0.61078 -0.574909,-1.16526 -1.041015,-1.64453 l -0.002,-0.002 c -0.471478,-0.48933 -1.064715,-0.89942 -1.763672,-1.24024 -0.704887,-0.3437 -1.52849,-0.61201 -2.47461,-0.8125 h -0.002 l -1.347656,-0.28906 h -0.0039 c -0.368445,-0.0757 -0.677157,-0.15962 -0.923828,-0.24805 -0.246095,-0.0882 -0.4316,-0.18281 -0.554688,-0.26562 -0.110578,-0.0796 -0.166512,-0.1486 -0.197265,-0.20117 -0.02589,-0.0554 -0.04242,-0.11267 -0.03711,-0.21094 v -0.01 -0.01 c 0.0028,-0.12384 0.02895,-0.19597 0.09375,-0.2832 0.04944,-0.0666 0.147545,-0.14955 0.355469,-0.22657 l 0.0039,-0.002 h 0.002 c 0.192568,-0.0735 0.499395,-0.12891 0.908203,-0.12891 0.635172,0 1.014552,0.13747 1.207032,0.30079 l 0.002,0.002 0.002,0.002 c 0.227056,0.18978 0.346467,0.41481 0.378906,0.82031 l 0.04687,0.57618 h 0.576172 4.894531 l -0.0039,-0.62891 c -0.0058,-1.17466 -0.30458,-2.24307 -0.902344,-3.15039 -2.7e-4,-4.2e-4 -0.0017,4.1e-4 -0.002,0 -0.590978,-0.91004 -1.439377,-1.62001 -2.498047,-2.10547 -1.065777,-0.48873 -2.305858,-0.7207 -3.701172,-0.7207 z m 0,1.25 c 1.255865,0 2.310533,0.20885 3.179688,0.60742 0.875779,0.40159 1.516024,0.94485 1.972656,1.64844 l 0.002,0.002 v 0.002 c 0.3426,0.5191 0.431158,1.18044 0.521485,1.84571 h -3.121094 c -0.136039,-0.40078 -0.220953,-0.83633 -0.542969,-1.10547 -0.512768,-0.43333 -1.20536,-0.59571 -2.011719,-0.59571 -0.508281,0 -0.953558,0.0595 -1.347656,0.20899 -8.87e-4,3.3e-4 -0.0011,0.002 -0.002,0.002 -0.368264,0.13682 -0.695873,0.34548 -0.923828,0.65235 -0.211526,0.28474 -0.328346,0.63771 -0.337891,0.99218 -0.01362,0.28712 0.03866,0.57927 0.167969,0.83789 l 0.0059,0.0117 0.0059,0.01 c 0.140752,0.25511 0.346998,0.46473 0.58789,0.63476 l 0.0059,0.004 0.0039,0.002 c 0.240414,0.16264 0.519151,0.29394 0.837891,0.40821 0.31991,0.11468 0.683761,0.21222 1.095703,0.29687 l 1.341797,0.28711 c 0.870373,0.18432 1.601323,0.42612 2.189453,0.71289 0.593679,0.28948 1.058778,0.62126 1.410156,0.98633 h 0.002 l 0.002,0.002 c 0.354473,0.36368 0.603862,0.76023 0.765625,1.20508 l 0.002,0.002 v 0.002 c 0.169725,0.45413 0.260417,0.9563 0.265625,1.51562 -0.0055,0.97519 -0.241586,1.74448 -0.693359,2.37695 -0.457848,0.64099 -1.110506,1.13576 -2.013672,1.49024 -0.895856,0.3535 -2.008606,0.54101 -3.339844,0.54101 -1.365504,0 -2.529323,-0.20294 -3.503906,-0.58984 v 0.002 c -0.956543,-0.38165 -1.662573,-0.94637 -2.179687,-1.71679 -7.7e-5,-1.2e-4 -0.0019,1.1e-4 -0.002,0 -0.396419,-0.60135 -0.52516,-1.48374 -0.615235,-2.41016 h 3.003906 c 0.07811,0.34053 0.112514,0.70344 0.296875,0.98438 0.292336,0.44547 0.717657,0.78938 1.220704,1.00781 l 0.002,0.002 c 0.507017,0.21729 1.083404,0.31445 1.714843,0.31445 0.527214,0 0.99372,-0.0629 1.408204,-0.21484 0.400115,-0.14671 0.751611,-0.36814 1.003906,-0.68555 0.244616,-0.30774 0.384716,-0.69674 0.392578,-1.08984 v -0.0137 -0.0137 c -0.008,-0.37727 -0.150706,-0.75261 -0.394531,-1.04102 -0.252323,-0.30978 -0.594659,-0.51875 -1.007813,-0.69141 -0.415541,-0.17915 -0.928003,-0.3285 -1.558594,-0.46679 v -0.002 l -1.636718,-0.35156 c -1.379564,-0.29925 -2.420273,-0.79083 -3.158203,-1.43945 -0.697661,-0.62323 -1.036022,-1.42134 -1.03125,-2.56641 v -0.002 -0.004 c -0.0048,-0.92933 0.233127,-1.69269 0.716796,-2.36523 0.496849,-0.68903 1.178279,-1.22833 2.091797,-1.62891 0.914433,-0.39885 1.976517,-0.60351 3.205078,-0.60351 z m -2.220703,9.78711 c 0.04822,0.011 0.08403,0.0324 0.132813,0.043 l 1.632812,0.35351 c 0.584978,0.12829 1.03827,0.26485 1.337891,0.39453 l 0.0039,0.002 0.0039,0.002 c 0.299794,0.12528 0.466283,0.25717 0.523438,0.32812 l 0.0059,0.008 0.0059,0.008 c 0.06944,0.081 0.08951,0.14088 0.09375,0.25195 -0.0049,0.13173 -0.03386,0.21743 -0.117188,0.32227 -0.0791,0.0995 -0.213778,0.20254 -0.455078,0.29101 -0.22693,0.0832 -0.554298,0.13867 -0.978516,0.13867 -0.500168,0 -0.90306,-0.0782 -1.21875,-0.21289 -0.309411,-0.13434 -0.51522,-0.30816 -0.671875,-0.54687 -0.153727,-0.23425 -0.253194,-0.53977 -0.27539,-0.95703 z"
           id="path18222" />
        <path
           style="color:#000000;-inkscape-font-specification:'Inter Heavy';stroke:none;-inkscape-stroke:none"
           d="m 51.017719,116.38414 q -0.06414,-0.80177 -0.601326,-1.25076 -0.529167,-0.44899 -1.611555,-0.44899 -0.689521,0 -1.130493,0.16837 -0.432955,0.16036 -0.641415,0.44098 -0.20846,0.28062 -0.216478,0.64141 -0.01603,0.29666 0.10423,0.53719 0.128283,0.23251 0.400884,0.42493 0.272602,0.18441 0.697539,0.33675 0.424937,0.15233 1.010228,0.2726 l 1.346971,0.28863 q 1.363007,0.28864 2.333147,0.76168 0.97014,0.47305 1.587501,1.11446 0.617362,0.6334 0.905999,1.42715 0.296654,0.79375 0.304672,1.73182 -0.008,1.61957 -0.809786,2.74205 -0.801769,1.12247 -2.293058,1.70777 -1.483272,0.58529 -3.56787,0.58529 -2.140722,0 -3.736241,-0.6334 -1.587502,-0.6334 -2.469447,-1.9483 -0.873928,-1.32292 -0.881946,-3.38346 h 4.233338 q 0.04009,0.75366 0.376831,1.26679 0.336743,0.51314 0.946087,0.77772 0.617362,0.26458 1.467236,0.26458 0.713574,0 1.194635,-0.17639 0.481062,-0.17639 0.72961,-0.48908 0.248548,-0.31269 0.256566,-0.71357 -0.008,-0.37683 -0.248549,-0.65745 -0.232512,-0.28864 -0.769697,-0.51313 -0.537185,-0.23251 -1.451201,-0.43296 l -1.635608,-0.35277 q -2.18081,-0.47305 -3.439587,-1.57949 -1.250759,-1.11446 -1.242741,-3.0387 -0.008,-1.56345 0.833839,-2.73403 0.849875,-1.1786 2.349182,-1.83605 1.507325,-0.65745 3.455622,-0.65745 1.988386,0 3.439587,0.66547 1.451201,0.66546 2.236934,1.87613 0.793751,1.20266 0.801769,2.81421 z"
           id="path18224" />
      </g>
      <g
         id="path18203">
        <path
           style="color:#000000;-inkscape-font-specification:'Inter Heavy';fill:#ffffff;stroke:none;-inkscape-stroke:none"
           d="m 56.582031,110.62695 v 17.67188 h 0.625 5.083985 v -6.41406 h 4.65039 v 6.41406 h 5.707031 v -17.67188 h -5.707031 v 6.41407 h -4.65039 v -6.41407 z m 1.25,1.25 h 3.208985 v 6.41407 h 7.15039 v -6.41407 h 3.207031 v 15.17188 h -3.207031 v -6.41406 h -7.15039 v 6.41406 h -3.208985 z"
           id="path18228" />
        <path
           style="color:#000000;-inkscape-font-specification:'Inter Heavy';stroke:none;-inkscape-stroke:none"
           d="m 57.207368,127.67304 v -16.42022 h 4.457833 v 6.41415 h 5.901016 v -6.41415 h 4.457833 v 16.42022 h -4.457833 v -6.41415 h -5.901016 v 6.41415 z"
           id="path18230" />
      </g>
      <g
         id="path18205">
        <path
           style="color:#000000;-inkscape-font-specification:'Inter Heavy';fill:#ffffff;stroke:none;-inkscape-stroke:none"
           d="m 82.0625,110.4043 c -1.586662,0 -3.048878,0.34551 -4.351563,1.04297 -1.307009,0.69707 -2.356288,1.74194 -3.11914,3.08984 h -0.002 c -0.769576,1.36424 -1.138672,3.01734 -1.138672,4.92578 0,1.89823 0.370086,3.54771 1.138672,4.91602 v 0.002 l 0.002,0.002 c 0.762659,1.34183 1.810753,2.38643 3.115234,3.09375 l 0.002,0.002 h 0.002 c 1.302685,0.69745 2.764901,1.04492 4.351563,1.04492 1.575871,0 3.032238,-0.34397 4.333984,-1.03516 v -0.002 h 0.002 c 1.31082,-0.70181 2.363773,-1.74515 3.126954,-3.08789 v -0.002 c 0.774914,-1.36921 1.146484,-3.02454 1.146484,-4.93359 0,-1.90833 -0.371543,-3.5616 -1.146484,-4.92578 v -0.002 c -0.76312,-1.34781 -1.816964,-2.39129 -3.128907,-3.08789 -1.301598,-0.69652 -2.758015,-1.04297 -4.333984,-1.04297 z m 0,1.25 c 1.395266,0 2.632108,0.2981 3.746094,0.89453 v 0.002 h 0.002 c 1.103595,0.58598 1.968334,1.43784 2.626953,2.60156 v 0.002 c 0.646264,1.13703 0.984375,2.56158 0.984375,4.30859 0,1.74701 -0.337487,3.17536 -0.984375,4.31836 -0.658132,1.15792 -1.522955,2.00991 -2.626953,2.60156 -1.114247,0.59164 -2.352032,0.89063 -3.748047,0.89063 -1.406603,0 -2.64841,-0.30042 -3.761719,-0.89649 -1.098412,-0.59616 -1.962721,-1.45253 -2.621094,-2.60937 l -0.002,-0.002 c -2.7e-4,-4.8e-4 2.7e-4,-0.001 0,-0.002 -0.641204,-1.14327 -0.976562,-2.56614 -0.976562,-4.30078 0,-1.74762 0.336979,-3.17328 0.978515,-4.31055 0.65895,-1.16431 1.520848,-2.0158 2.619141,-2.60156 v -0.002 h 0.002 c 1.113309,-0.59607 2.355116,-0.89453 3.761719,-0.89453 z m 0,2.6289 c -0.837264,0 -1.600365,0.20694 -2.224609,0.64063 -0.617281,0.42683 -1.075713,1.05748 -1.373047,1.82812 v 0.002 l -0.002,0.002 c -0.292596,0.76806 -0.425782,1.66918 -0.425782,2.70703 0,1.03785 0.133924,1.94264 0.425782,2.71484 l 0.002,0.002 v 0.004 c 0.297481,0.76496 0.755418,1.39331 1.36914,1.82422 l 0.0039,0.002 0.0039,0.002 c 0.624185,0.42707 1.384949,0.63086 2.220703,0.63086 0.835755,0 1.59472,-0.204 2.214844,-0.63281 h 0.002 c 0.619908,-0.43068 1.080543,-1.0611 1.373047,-1.82813 v -0.002 c 0.297964,-0.77305 0.433593,-1.67854 0.433593,-2.7168 10e-7,-1.03898 -0.136387,-1.94362 -0.435546,-2.71289 -0.292101,-0.76926 -0.752222,-1.40065 -1.373047,-1.82617 -0.619532,-0.43378 -1.379136,-0.64063 -2.214844,-0.64063 z m 0,1.25 c 0.637989,0 1.115277,0.14589 1.5,0.41602 l 0.0039,0.002 0.002,0.002 c 0.391708,0.268 0.695193,0.66183 0.916016,1.24609 v 0.002 l 0.002,0.002 c 0.224663,0.5777 0.349609,1.33174 0.349609,2.25976 10e-7,0.92803 -0.124187,1.68528 -0.349609,2.26953 h -0.002 v 0.002 c -0.220658,0.57922 -0.522728,0.97345 -0.917969,1.24804 -0.384757,0.26606 -0.864407,0.41016 -1.503906,0.41016 -0.637754,0 -1.120893,-0.14377 -1.511719,-0.41016 -0.389489,-0.27411 -0.692146,-0.67067 -0.917969,-1.25 -3.97e-4,-0.001 -0.0016,-9.3e-4 -0.002,-0.002 -0.22017,-0.58481 -0.34375,-1.34088 -0.34375,-2.26758 0,-0.92758 0.123914,-1.68124 0.34375,-2.25976 0.226487,-0.58702 0.530367,-0.98394 0.917969,-1.25196 h 0.002 c 0.391328,-0.27187 0.873731,-0.41797 1.511719,-0.41797 z"
           id="path18234" />
        <path
           style="color:#000000;-inkscape-font-specification:'Inter Heavy';stroke:none;-inkscape-stroke:none"
           d="m 90.047762,119.46293 q 0,2.74205 -1.066353,4.62621 -1.066352,1.87614 -2.878348,2.84628 -1.811997,0.96212 -4.040914,0.96212 -2.244951,0 -4.056948,-0.97014 -1.803979,-0.97816 -2.870331,-2.8543 -1.058335,-1.88415 -1.058335,-4.61017 0,-2.74205 1.058335,-4.61818 1.066352,-1.88416 2.870331,-2.84628 1.811997,-0.97014 4.056948,-0.97014 2.228917,0 4.040914,0.97014 1.811996,0.96212 2.878348,2.84628 1.066353,1.87613 1.066353,4.61818 z m -4.586116,0 q 0,-1.47525 -0.392867,-2.48548 -0.384849,-1.01825 -1.146529,-1.53939 -0.753662,-0.52917 -1.860103,-0.52917 -1.10644,0 -1.86812,0.52917 -0.753663,0.52114 -1.146529,1.53939 -0.384849,1.01023 -0.384849,2.48548 0,1.47526 0.384849,2.4935 0.392866,1.01023 1.146529,1.5394 0.76168,0.52115 1.86812,0.52115 1.106441,0 1.860103,-0.52115 0.76168,-0.52917 1.146529,-1.5394 0.392867,-1.01824 0.392867,-2.4935 z"
           id="path18236" />
      </g>
      <g
         id="path18207">
        <path
           style="color:#000000;-inkscape-font-specification:'Inter Heavy';fill:#ffffff;stroke:none;-inkscape-stroke:none"
           d="m 91.474609,110.62695 v 17.67188 h 0.625 5.083985 v -4.875 h 1.84375 c 1.327516,0 2.522186,-0.24976 3.556636,-0.76367 1.03628,-0.51226 1.86635,-1.26275 2.44532,-2.22266 0.58956,-0.96857 0.87695,-2.11018 0.87695,-3.37891 0,-1.25602 -0.27688,-2.39511 -0.8457,-3.37109 -0.56474,-0.96897 -1.3734,-1.73435 -2.38282,-2.26562 -1.01532,-0.53439 -2.18931,-0.79493 -3.49023,-0.79493 z m 1.25,1.25 H 99.1875 c 1.13645,0 2.09549,0.22265 2.9082,0.65039 0.81862,0.43085 1.43393,1.01748 1.88477,1.79102 0.44675,0.76652 0.67578,1.66578 0.67578,2.74023 0,1.08313 -0.23723,1.97596 -0.69531,2.72852 v 0.002 c -0.45793,0.76007 -1.08731,1.33458 -1.93164,1.75196 -0.83596,0.41559 -1.82865,0.63281 -3.001956,0.63281 h -1.84375 v -2.21485 h 0.945312 c 0.5961,0 1.141187,-0.10235 1.615235,-0.33593 l 0.002,-0.002 h 0.002 c 0.469759,-0.23488 0.856689,-0.59162 1.115229,-1.03711 0.26527,-0.44827 0.39258,-0.9707 0.39258,-1.52539 0,-0.55814 -0.12478,-1.08081 -0.39453,-1.52343 -0.2594,-0.43937 -0.65175,-0.78674 -1.121092,-1.00977 -0.473277,-0.23244 -1.016609,-0.33789 -1.611328,-0.33789 h -2.195312 v 4.52148 h -1.763672 v 4.71485 h 1.763672 v 3.625 h -3.208985 z m 4.458985,3.56055 h 0.945312 c 0.451543,0 0.798922,0.0791 1.0625,0.20898 l 0.0059,0.002 0.0039,0.002 c 0.273818,0.12908 0.451202,0.29207 0.585937,0.52149 l 0.0039,0.004 0.002,0.006 c 0.134269,0.21908 0.212887,0.49654 0.212887,0.87695 0,0.37403 -0.07716,0.65544 -0.216794,0.89063 l -0.002,0.004 -0.002,0.002 c -0.136529,0.23616 -0.318076,0.40849 -0.59375,0.54687 -0.263578,0.12988 -0.610957,0.20703 -1.0625,0.20703 h -0.945312 z m -1.763672,4.52148 h 0.513672 v 2.21485 h -0.513672 z"
           id="path18240" />
        <path
           style="color:#000000;-inkscape-font-specification:'Inter Heavy';stroke:none;-inkscape-stroke:none"
           d="m 92.100277,127.67304 v -16.42022 h 7.087633 q 1.82803,0 3.19906,0.7216 1.37102,0.72159 2.1327,2.02847 0.76168,1.30688 0.76168,3.05474 0,1.76389 -0.78573,3.05474 -0.77772,1.29084 -2.18883,1.98838 -1.40309,0.69754 -3.279233,0.69754 h -4.233338 v -3.46364 h 3.335357 q 0.785733,0 1.338953,-0.2726 0.561241,-0.28062 0.857891,-0.79375 0.30467,-0.51313 0.30467,-1.21067 0,-0.70556 -0.30467,-1.20266 -0.29665,-0.50511 -0.857891,-0.76969 -0.55322,-0.2726 -1.338953,-0.2726 H 96.55811 v 12.86036 z"
           id="path18242" />
      </g>
      <g
         id="path18209">
        <path
           style="color:#000000;-inkscape-font-specification:'Inter Heavy';fill:#ffffff;stroke:none;-inkscape-stroke:none"
           d="m 110.78125,110.62695 v 17.67188 h 0.625 7.73047 c 1.26202,0 2.38111,-0.21264 3.3418,-0.66016 0.94727,-0.44128 1.71126,-1.0712 2.24414,-1.87304 10e-5,-1.6e-4 0.002,1.5e-4 0.002,0 0.53772,-0.80206 0.80859,-1.7366 0.80859,-2.74219 0,-0.867 -0.19563,-1.66314 -0.60156,-2.3418 -0.39354,-0.66317 -0.93725,-1.19901 -1.60351,-1.57617 -0.18181,-0.10437 -0.41015,-0.0917 -0.60352,-0.16992 0.12119,-0.0689 0.27876,-0.0828 0.39258,-0.16211 l 0.002,-0.002 0.002,-0.002 c 0.54839,-0.38818 0.98752,-0.8833 1.29493,-1.46484 0.31724,-0.59009 0.47656,-1.25109 0.47656,-1.94727 0,-0.94335 -0.25758,-1.8117 -0.77344,-2.53515 -0.51304,-0.72736 -1.27077,-1.27386 -2.21094,-1.64454 -0.94749,-0.37542 -2.07401,-0.55078 -3.38086,-0.55078 z m 1.25,1.25 h 6.49609 c 1.19467,0 2.16767,0.16483 2.91993,0.46289 h 0.002 c 0.76804,0.30242 1.29806,0.70486 1.65039,1.20508 v 0.002 l 0.002,0.002 c 0.36074,0.50591 0.54102,1.08426 0.54102,1.80859 0,0.51182 -0.10892,0.95137 -0.32617,1.35547 l -0.002,0.004 -0.002,0.002 c -0.2163,0.41053 -0.51257,0.74705 -0.91406,1.03125 -0.39883,0.2771 -0.86784,0.47458 -1.42969,0.58789 l -0.50195,0.0996 v 1.27539 l 0.60156,0.0215 c 0.61436,0.0233 1.1485,0.1748 1.63672,0.45507 l 0.002,0.002 h 0.002 c 0.48578,0.27437 0.85865,0.63988 1.14844,1.1289 l 0.002,0.002 c 0.27824,0.46519 0.42382,1.01807 0.42382,1.70117 0,0.78885 -0.1982,1.45128 -0.59961,2.04883 l -0.002,0.002 c -0.39714,0.59799 -0.95711,1.07137 -1.73047,1.43164 -0.76044,0.35424 -1.69256,0.54297 -2.81445,0.54297 h -7.10547 z m 3.20898,2.2461 v 4.39258 h 0.625 1.82813 c 0.45583,0 0.88387,-0.0713 1.27148,-0.23047 0.38758,-0.15919 0.72575,-0.40957 0.96485,-0.74024 0.2545,-0.34994 0.37695,-0.78205 0.37695,-1.22461 0,-0.65598 -0.28454,-1.28472 -0.79883,-1.66406 -0.48526,-0.3626 -1.09544,-0.5332 -1.75195,-0.5332 z m 1.25,1.25 h 1.26563 c 0.45373,0 0.76474,0.10431 1.00586,0.28515 l 0.002,0.002 h 0.002 c 0.21126,0.15534 0.29101,0.30149 0.29101,0.66015 0,0.23092 -0.0491,0.3698 -0.13672,0.49024 h -0.002 v 0.002 c -0.0922,0.1279 -0.21753,0.23007 -0.42774,0.31641 -0.21104,0.0867 -0.47232,0.13671 -0.79687,0.13672 h -1.20313 z m -1.25,4.65234 v 4.71289 h 0.625 2.08399 c 0.82569,0 1.52237,-0.14413 2.05664,-0.54101 l 0.002,-0.002 h 0.002 c 0.5295,-0.40091 0.80859,-1.05786 0.80859,-1.75 0,-0.48033 -0.11483,-0.9399 -0.36719,-1.32226 -0.24597,-0.37268 -0.60687,-0.65813 -1.02734,-0.83789 -0.41951,-0.18179 -0.8921,-0.25977 -1.41016,-0.25977 z m 1.25,1.25 h 1.52344 c 0.39061,0 0.69216,0.0601 0.91406,0.15625 h 0.002 l 0.002,0.002 c 0.23051,0.0983 0.37026,0.21785 0.47656,0.37891 0.10042,0.15215 0.16016,0.34345 0.16016,0.63281 0,0.40806 -0.0947,0.58464 -0.3125,0.75 -4.8e-4,3.7e-4 4.8e-4,0.002 0,0.002 -0.21471,0.15835 -0.63783,0.29101 -1.30664,0.29101 h -1.45899 z"
           id="path18246" />
        <path
           style="color:#000000;-inkscape-font-specification:'Inter Heavy';stroke:none;-inkscape-stroke:none"
           d="m 111.40679,127.67304 v -16.42022 h 7.1197 q 1.87614,0 3.15095,0.50512 1.28283,0.50511 1.93226,1.42715 0.65745,0.92203 0.65745,2.17279 0,0.906 -0.40088,1.65164 -0.39287,0.74565 -1.10644,1.25076 -0.71357,0.4971 -1.66768,0.68952 v 0.16035 q 1.05834,0.0401 1.92425,0.53719 0.86591,0.48908 1.37904,1.35499 0.51313,0.85789 0.51313,2.02046 0,1.34697 -0.70556,2.39728 -0.69754,1.05032 -1.98838,1.65165 -1.29085,0.60132 -3.07879,0.60132 z m 4.45783,-3.55985 h 2.0846 q 1.12247,0 1.68371,-0.41692 0.56124,-0.42494 0.56124,-1.25076 0,-0.57727 -0.26458,-0.97816 -0.26459,-0.40088 -0.75367,-0.60934 -0.48106,-0.20846 -1.16256,-0.20846 h -2.14874 z m 0,-6.22172 h 1.82803 q 0.58529,0 1.03428,-0.18441 0.44899,-0.18441 0.69754,-0.52917 0.25657,-0.35278 0.25657,-0.85789 0,-0.76168 -0.5452,-1.16256 -0.54521,-0.40891 -1.37905,-0.40891 h -1.89217 z"
           id="path18248" />
      </g>
      <g
         id="path18211">
        <path
           style="color:#000000;-inkscape-font-specification:'Inter Heavy';fill:#ffffff;stroke:none;-inkscape-stroke:none"
           d="m 124.76367,110.62695 0.49219,0.92188 5.95508,11.11719 v 5.63281 h 5.67578 v -5.63281 l 6.44726,-12.03907 h -6.40625 l -2.8789,5.98828 -2.87891,-5.98828 z m 2.08594,1.25 h 3.53516 l 3.20703,6.67188 h 0.91406 l 3.20703,-6.67188 h 3.53516 l -5.61133,10.47657 v 4.69531 h -3.17578 v -4.69531 z"
           id="path18252" />
        <path
           style="color:#000000;-inkscape-font-specification:'Inter Heavy';stroke:none;-inkscape-stroke:none"
           d="m 125.80651,111.25282 h 4.97097 l 3.20707,6.67072 h 0.12829 l 3.20707,-6.67072 h 4.97096 l -6.02929,11.25683 v 5.16339 h -4.42577 v -5.16339 z"
           id="path18254" />
      </g>
      <g
         id="path18213">
        <path
           style="color:#000000;-inkscape-font-specification:'Inter Heavy';fill:#ffffff;stroke:none;-inkscape-stroke:none"
           d="m 152.64648,110.62695 -5.83203,17.67188 h 6.13867 l 0.13477,-0.44531 0.81445,-2.69922 h 4.48633 l 0.94922,3.14453 h 6.13867 l -5.83203,-17.67188 z m 0.9043,1.25 h 5.18945 l 5.00782,15.17188 h -3.48243 l -0.57226,-1.89453 h 1.56641 v -4.58399 h -2.94922 l -1.63672,-5.41992 h -1.05664 l -1.63672,5.41992 h -3.01367 v 0.625 3.95899 h 1.6289 l -0.57031,1.89453 h -3.48242 z m 2.5957,5.84571 0.85743,2.84765 h -1.7168 z m -3.92968,4.09765 h 1.38672 l -0.62891,2.08399 h -0.75781 z m 2.6914,0 h 2.47461 l 0.62891,2.08399 h -3.73242 z m 3.7793,0 h 1.32227 v 2.08399 h -0.69336 z"
           id="path18258" />
        <path
           style="color:#000000;-inkscape-font-specification:'Inter Heavy';stroke:none;-inkscape-stroke:none"
           d="m 152.48932,127.67304 h -4.81061 l 5.41995,-16.42022 h 6.09344 l 5.41996,16.42022 h -4.81061 l -3.59192,-11.89824 h -0.12829 z m -0.89798,-6.47829 h 9.04395 v 3.33536 h -9.04395 z"
           id="path18260" />
      </g>
      <g
         id="path18215">
        <path
           style="color:#000000;-inkscape-font-specification:'Inter Heavy';fill:#ffffff;stroke:none;-inkscape-stroke:none"
           d="m 173.36719,110.4043 c -1.1769,0 -2.29371,0.19849 -3.33594,0.60156 -1.04462,0.39847 -1.97291,0.99649 -2.76953,1.78125 -0.80363,0.78616 -1.42949,1.74964 -1.875,2.86914 v 0.002 h -0.002 c -0.44517,1.13316 -0.66016,2.41513 -0.66016,3.83594 0,1.81284 0.35397,3.41582 1.08398,4.77734 v 0.002 h 0.002 c 0.73016,1.35109 1.76627,2.4154 3.07422,3.15039 1.31062,0.7365 2.82699,1.09961 4.51367,1.09961 1.51411,0 2.88831,-0.29969 4.09179,-0.91016 h 0.002 c 1.2086,-0.61592 2.17703,-1.52005 2.86523,-2.67383 l 0.002,-0.002 c 0.70147,-1.17405 1.04102,-2.57595 1.04102,-4.16016 V 117.875 h -8.5293 v 4.42578 h 2.80274 c -0.0312,0.0742 -0.023,0.18289 -0.0645,0.25 -0.15206,0.24621 -0.37592,0.43883 -0.73632,0.5957 v 0.002 h -0.002 c -0.34265,0.15093 -0.82132,0.24414 -1.43945,0.24414 -0.67132,0 -1.17477,-0.15162 -1.57422,-0.43164 -0.40805,-0.28606 -0.71941,-0.69312 -0.94531,-1.28321 -0.22694,-0.59282 -0.35156,-1.34068 -0.35156,-2.24609 0,-0.89097 0.12947,-1.62281 0.36328,-2.20117 2e-4,-5e-4 -2e-4,-10e-4 0,-0.002 0.23982,-0.57912 0.56202,-0.98222 0.97656,-1.26563 0.41563,-0.28084 0.91464,-0.42969 1.5625,-0.42969 0.29936,0 0.56079,0.0348 0.78711,0.0977 l 0.008,0.002 0.006,0.002 c 0.22999,0.0585 0.4122,0.14369 0.5625,0.25 l 0.008,0.004 0.006,0.006 c 0.16069,0.10713 0.28762,0.23108 0.39258,0.38477 l 0.002,0.004 0.002,0.002 c 0.10135,0.14479 0.18095,0.31931 0.23437,0.53711 l 0.11719,0.47461 h 0.49023 5.19922 l -0.0723,-0.68946 c -0.0939,-0.90381 -0.3615,-1.7479 -0.80078,-2.51367 -0.4361,-0.76022 -1.01526,-1.42116 -1.72266,-1.9707 -0.70196,-0.55503 -1.51042,-0.97858 -2.41211,-1.27149 -0.90151,-0.29981 -1.87204,-0.44726 -2.90234,-0.44726 z m 0,1.25 c 0.91328,0 1.74705,0.12987 2.51172,0.38476 h 0.004 0.002 c 0.77523,0.25183 1.4453,0.60717 2.02539,1.06641 l 0.002,0.002 0.002,0.002 c 0.58612,0.45533 1.05127,0.98665 1.40625,1.60546 0.2316,0.40374 0.30971,0.87557 0.42188,1.33204 h -3.26953 c -0.0706,-0.16028 -0.11367,-0.33676 -0.21289,-0.47852 -0.19209,-0.27937 -0.4377,-0.51906 -0.72071,-0.70898 -0.28269,-0.19825 -0.60534,-0.34124 -0.95508,-0.43165 -10e-4,-3.3e-4 -0.003,3.4e-4 -0.004,0 -0.3499,-0.0968 -0.72304,-0.14453 -1.11719,-0.14453 -0.84802,0 -1.62321,0.20977 -2.26562,0.64453 l -0.002,0.002 c -0.63199,0.43208 -1.11187,1.06081 -1.42773,1.82617 l -0.002,0.002 v 0.002 c -0.311,0.76836 -0.45507,1.66075 -0.45507,2.67187 0,1.01884 0.13671,1.91588 0.43359,2.69141 0.29793,0.77825 0.76759,1.42044 1.39648,1.86133 0.63752,0.44691 1.42294,0.6582 2.29102,0.6582 0.7388,0 1.38644,-0.10551 1.94141,-0.34961 0.54826,-0.23866 1.00386,-0.60521 1.30078,-1.08594 0.16353,-0.26476 0.17232,-0.59782 0.24219,-0.90625 h 0.33203 l 0.0644,-1.24609 -1.45898,-0.15235 v 0.14844 h -1.73243 v -1.926 h 6.0293 v 1.65234 c 0,1.4081 -0.29543,2.56668 -0.86523,3.51954 v 0.002 c -0.57316,0.96174 -1.34722,1.68241 -2.36133,2.19922 -1.00902,0.51147 -2.17524,0.77539 -3.52539,0.77539 -1.5097,0 -2.79697,-0.31829 -3.90235,-0.93946 -1.10759,-0.6224 -1.95852,-1.49195 -2.58593,-2.65234 v -0.002 c -0.61642,-1.15038 -0.93555,-2.5355 -0.93555,-4.18555 0,-1.29377 0.19666,-2.41519 0.57422,-3.37695 2.1e-4,-5.4e-4 -2.1e-4,-10e-4 0,-0.002 0.38816,-0.97383 0.91727,-1.7795 1.58789,-2.43554 v -0.002 c 0.67796,-0.66813 1.45264,-1.16494 2.3418,-1.5039 h 0.002 l 0.002,-0.002 c 0.89271,-0.34525 1.84877,-0.51758 2.88477,-0.51758 z"
           id="path18264" />
        <path
           style="color:#000000;-inkscape-font-specification:'Inter Heavy';stroke:none;-inkscape-stroke:none"
           d="m 176.07731,116.67278 q -0.10423,-0.42494 -0.32872,-0.74565 -0.2245,-0.32872 -0.56124,-0.55322 -0.32873,-0.23251 -0.7697,-0.34476 -0.43295,-0.12026 -0.9541,-0.12026 -1.12248,0 -1.91623,0.53718 -0.78573,0.53719 -1.20265,1.54742 -0.4089,1.01022 -0.4089,2.43737 0,1.44319 0.39286,2.46945 0.39287,1.02626 1.17058,1.57147 0.77772,0.5452 1.93227,0.5452 1.01824,0 1.69173,-0.29666 0.6815,-0.29665 1.01824,-0.84185 0.33675,-0.54521 0.33675,-1.28283 l 0.76969,0.0802 h -3.75227 v -3.175 h 7.28006 v 2.27702 q 0,2.24496 -0.95411,3.84047 -0.94609,1.58751 -2.61376,2.43738 -1.65966,0.84186 -3.8084,0.84186 -2.39729,0 -4.20929,-1.01825 -1.812,-1.01824 -2.83024,-2.9024 -1.01023,-1.88416 -1.01023,-4.48189 0,-2.03649 0.61736,-3.60795 0.62538,-1.57147 1.73182,-2.65386 1.10644,-1.0904 2.55764,-1.64362 1.4512,-0.56124 3.11087,-0.56124 1.45921,0 2.70997,0.41692 1.25878,0.4089 2.2209,1.17058 0.97014,0.75366 1.56345,1.78794 0.59331,1.03429 0.72159,2.26901 z"
           id="path18266" />
      </g>
      <g
         id="path18217">
        <path
           style="color:#000000;-inkscape-font-specification:'Inter Heavy';fill:#ffffff;stroke:none;-inkscape-stroke:none"
           d="m 182.23437,110.62695 v 17.67188 h 0.625 12.42774 v -4.8418 h -7.34375 v -1.57226 h 6.76758 v -4.84375 h -6.76758 v -1.57032 h 7.37695 v -4.84375 z m 1.25,1.25 h 10.58594 v 2.34375 h -7.37695 v 4.07032 h 6.76758 v 2.34375 h -6.76758 v 4.07226 h 7.34375 v 2.3418 h -10.55274 z"
           id="path18270" />
        <path
           style="color:#000000;-inkscape-font-specification:'Inter Heavy';stroke:none;-inkscape-stroke:none"
           d="m 182.86024,127.67304 v -16.42022 h 11.8341 v 3.59193 h -7.37627 v 2.82222 h 6.76693 v 3.59192 h -6.76693 v 2.82223 h 7.3442 v 3.59192 z"
           id="path18272" />
      </g>
    </g>
  </g>
</svg>
