<?xml version="1.0" encoding="UTF-8" standalone="no"?>
<!-- Created with Inkscape (http://www.inkscape.org/) -->

<svg
   width="174.37495mm"
   height="19.11964mm"
   viewBox="0 0 174.37495 19.11964"
   version="1.1"
   id="svg5"
   xmlns="http://www.w3.org/2000/svg"
   xmlns:svg="http://www.w3.org/2000/svg">
  <defs
     id="defs2" />
  <g
     id="layer1"
     transform="translate(-43.503953,-113.29647)">
    <g
       aria-label="SHOP BY PRICE"
       id="text6356"
       style="font-size:22.5778px;font-family:Montserrat;-inkscape-font-specification:Montserrat;stroke-width:1.25">
      <g
         id="path9956">
        <path
           style="color:#000000;-inkscape-font-specification:'Inter Heavy';fill:#ffffff;-inkscape-stroke:none;paint-order:stroke fill markers"
           d="m 51.6875,113.79688 c -1.369165,-1e-5 -2.609746,0.23318 -3.705078,0.71093 h -0.002 c -1.085554,0.47603 -1.969152,1.16054 -2.605469,2.04297 -0.637668,0.88669 -0.955946,1.94278 -0.951172,3.0957 -3e-6,6.9e-4 3e-6,0.001 0,0.002 6e-6,10e-4 -7e-6,0.003 0,0.004 -0.0045,1.41614 0.484841,2.64288 1.451172,3.50391 h 0.002 l 0.002,0.002 c 0.794724,0.69855 1.85606,1.17038 3.074219,1.51172 h -4.949219 l 0.002,0.62696 c 0.0057,1.46152 0.321937,2.71887 0.986328,3.7246 l 0.002,0.002 v 0.002 c 0.658736,0.98212 1.598218,1.71897 2.757812,2.18164 1.152773,0.45763 2.478009,0.67774 3.966797,0.67774 1.448224,0 2.715037,-0.20202 3.796875,-0.62891 1.085219,-0.42592 1.961089,-1.07014 2.572266,-1.92578 0.616589,-0.86321 0.921895,-1.91943 0.927734,-3.10156 v -0.006 -0.004 c -0.0059,-0.68762 -0.119752,-1.33795 -0.34375,-1.93945 l -0.002,-0.002 c -0.222642,-0.61111 -0.574538,-1.16508 -1.041016,-1.64453 -0.47177,-0.49015 -1.063829,-0.9029 -1.763672,-1.24414 -0.705389,-0.34395 -1.529595,-0.61001 -2.476562,-0.81054 l -1.34961,-0.28907 h -0.002 c -0.368439,-0.0757 -0.679118,-0.16157 -0.925781,-0.25 -0.246084,-0.0882 -0.429651,-0.18087 -0.552734,-0.26367 -0.110627,-0.0797 -0.168466,-0.14858 -0.199219,-0.20117 -0.02589,-0.0554 -0.04242,-0.11268 -0.03711,-0.21094 l 0.002,-0.01 v -0.01 c 0.0028,-0.12385 0.027,-0.19597 0.0918,-0.2832 0.04944,-0.0666 0.149501,-0.15151 0.357421,-0.22852 h 0.0039 l 0.002,-0.002 c 0.192568,-0.0735 0.499394,-0.12695 0.908203,-0.12695 0.635172,-10e-6 1.014552,0.13746 1.207031,0.30078 l 0.002,0.002 0.002,0.002 c 0.227057,0.18978 0.346467,0.41481 0.378907,0.82032 l 0.04492,0.57421 h 0.578125 4.892578 l -0.002,-0.62695 c -0.0059,-1.17621 -0.306919,-2.24817 -0.90625,-3.15625 -0.590888,-0.90842 -1.440678,-1.61474 -2.498047,-2.09961 -1.065778,-0.48873 -2.303905,-0.72266 -3.699219,-0.72265 z m 0,1.25 c 1.255865,-1e-5 2.308579,0.21081 3.177734,0.60937 0.875781,0.4016 1.517977,0.94485 1.97461,1.64844 v 0.002 l 0.002,0.002 c 0.342263,0.51858 0.430997,1.1793 0.521484,1.84375 h -3.123047 c -0.136156,-0.39973 -0.219683,-0.83494 -0.541015,-1.10351 -0.512768,-0.43333 -1.205361,-0.5957 -2.011719,-0.5957 -0.508282,-1e-5 -0.953558,0.0575 -1.347656,0.20703 -8.87e-4,3.2e-4 -0.0011,0.002 -0.002,0.002 -0.368268,0.13682 -0.695871,0.34548 -0.923829,0.65234 -0.211528,0.28475 -0.328345,0.63771 -0.33789,0.99219 -0.01363,0.28713 0.03866,0.58122 0.167969,0.83984 l 0.0059,0.0117 0.0059,0.01 c 0.140751,0.25512 0.346994,0.46472 0.587891,0.63476 l 0.0039,0.002 0.0059,0.004 c 0.240418,0.16264 0.519147,0.29394 0.83789,0.40821 0.31992,0.11469 0.681802,0.21223 1.09375,0.29687 l 1.34375,0.28711 c 0.870374,0.18432 1.601324,0.42612 2.189453,0.71289 0.593677,0.28948 1.05878,0.61931 1.410157,0.98438 l 0.002,0.002 0.002,0.002 c 0.354473,0.36368 0.603862,0.76023 0.765625,1.20508 v 0.002 l 0.002,0.002 c 0.169476,0.45346 0.258222,0.95535 0.263672,1.51367 -0.0056,0.97489 -0.239732,1.74657 -0.691406,2.37891 -0.457848,0.64098 -1.110508,1.13381 -2.013672,1.48828 l -0.002,0.002 c -0.895857,0.3535 -2.006654,0.54102 -3.337891,0.54102 -1.364766,0 -2.529644,-0.20337 -3.503906,-0.58985 h -0.002 c -0.955738,-0.38164 -1.660907,-0.94484 -2.177735,-1.71484 -7.7e-5,-1.2e-4 -0.0019,1.2e-4 -0.002,0 -0.396196,-0.60101 -0.52698,-1.48446 -0.617187,-2.41016 h 3.003906 c 0.0781,0.34061 0.114429,0.70339 0.298828,0.98438 0.292335,0.44546 0.717662,0.78938 1.220703,1.00781 l 0.002,0.002 c 0.507018,0.21729 1.081451,0.31446 1.712891,0.31446 0.527214,0 0.995672,-0.0629 1.410156,-0.21485 0.400115,-0.14671 0.751611,-0.37009 1.003906,-0.6875 0.244617,-0.30774 0.384716,-0.69675 0.392578,-1.08984 v -0.0117 -0.0137 c -0.008,-0.37727 -0.150706,-0.75261 -0.394531,-1.04102 -0.250536,-0.30759 -0.590741,-0.51751 -1,-0.68945 l -0.0039,-0.002 c -0.416049,-0.1797 -0.930457,-0.33015 -1.5625,-0.46875 l -1.636719,-0.35352 v 0.002 c -1.378856,-0.29908 -2.42034,-0.79132 -3.158203,-1.43945 h -0.002 c -0.69706,-0.62312 -1.034066,-1.42183 -1.029297,-2.56641 v -0.002 -0.004 c -0.0048,-0.92932 0.233126,-1.69268 0.716797,-2.36523 0.496487,-0.68805 1.177653,-1.22862 2.089844,-1.62891 0.914432,-0.39884 1.978469,-0.60546 3.207031,-0.60546 z m -2.222656,9.78906 c 0.04821,0.0111 0.08403,0.0324 0.132812,0.043 h 0.002 l 1.634766,0.35351 -0.002,-0.002 c 0.584976,0.12828 1.036319,0.2668 1.335937,0.39648 l 0.0039,0.002 0.0039,0.002 c 0.299796,0.12529 0.466279,0.25717 0.523437,0.32812 l 0.0078,0.008 0.0059,0.008 c 0.06944,0.081 0.08951,0.14089 0.09375,0.25195 -0.0049,0.13173 -0.03385,0.21743 -0.117187,0.32227 -0.0791,0.0995 -0.213779,0.20254 -0.455078,0.29101 -0.226932,0.0832 -0.556252,0.13868 -0.980469,0.13868 -0.500946,0 -0.90284,-0.0798 -1.21875,-0.21485 h -0.002 c -0.306891,-0.13408 -0.514037,-0.30738 -0.669922,-0.54492 -0.153728,-0.23425 -0.253195,-0.53977 -0.275391,-0.95703 z"
           id="path9981" />
        <path
           style="color:#000000;-inkscape-font-specification:'Inter Heavy';fill:#93258e;-inkscape-stroke:none;paint-order:stroke fill markers"
           d="m 53.899963,119.77824 q -0.06414,-0.80177 -0.601326,-1.25076 -0.529167,-0.44899 -1.611555,-0.44899 -0.689521,0 -1.130493,0.16837 -0.432955,0.16035 -0.641415,0.44097 -0.20846,0.28062 -0.216478,0.64142 -0.01603,0.29665 0.10423,0.53718 0.128283,0.23252 0.400884,0.42494 0.272602,0.18441 0.697539,0.33674 0.424937,0.15234 1.010228,0.2726 l 1.346971,0.28864 q 1.363007,0.28864 2.333147,0.76168 0.97014,0.47304 1.587501,1.11446 0.617362,0.6334 0.905999,1.42715 0.296654,0.79375 0.304672,1.73182 -0.008,1.61957 -0.809786,2.74205 -0.801769,1.12247 -2.293058,1.70776 -1.483272,0.58529 -3.56787,0.58529 -2.140722,0 -3.736241,-0.63339 -1.587502,-0.6334 -2.469447,-1.9483 -0.873928,-1.32292 -0.881946,-3.38346 h 4.233338 q 0.04009,0.75366 0.376831,1.26679 0.336743,0.51313 0.946087,0.77772 0.617362,0.26458 1.467236,0.26458 0.713574,0 1.194636,-0.17639 0.481061,-0.17639 0.729609,-0.48908 0.248548,-0.31269 0.256566,-0.71357 -0.008,-0.37683 -0.248548,-0.65745 -0.232513,-0.28864 -0.769698,-0.51314 -0.537185,-0.23251 -1.451201,-0.43295 l -1.635608,-0.35278 q -2.18081,-0.47304 -3.439587,-1.57948 -1.250759,-1.11446 -1.242741,-3.0387 -0.008,-1.56345 0.833839,-2.73404 0.849875,-1.17859 2.349182,-1.83605 1.507325,-0.65745 3.455622,-0.65745 1.988386,0 3.439587,0.66547 1.451201,0.66547 2.236934,1.87614 0.793751,1.20265 0.801769,2.81421 z"
           id="path9983" />
      </g>
      <g
         id="path9958">
        <path
           style="color:#000000;-inkscape-font-specification:'Inter Heavy';fill:#ffffff;-inkscape-stroke:none;paint-order:stroke fill markers"
           d="m 59.464844,114.02148 v 17.66993 h 0.625 5.082031 v -6.41407 h 4.652344 v 6.41407 h 5.707031 v -17.66993 h -5.707031 v 6.41407 h -4.652344 v -6.41407 z m 1.25,1.25 h 3.207031 v 6.41407 h 7.152344 v -6.41407 h 3.207031 v 15.16993 h -3.207031 v -6.41407 h -7.152344 v 6.41407 h -3.207031 z"
           id="path9987" />
        <path
           style="color:#000000;-inkscape-font-specification:'Inter Heavy';fill:#93258e;-inkscape-stroke:none;paint-order:stroke fill markers"
           d="m 60.089612,131.06714 v -16.42022 h 4.457833 v 6.41415 h 5.901016 v -6.41415 h 4.457833 v 16.42022 h -4.457833 v -6.41415 h -5.901016 v 6.41415 z"
           id="path9989" />
      </g>
      <g
         id="path9960">
        <path
           style="color:#000000;-inkscape-font-specification:'Inter Heavy';fill:#ffffff;-inkscape-stroke:none;paint-order:stroke fill markers"
           d="m 84.945312,113.79688 c -1.586662,-1e-5 -3.050831,0.34746 -4.353515,1.04492 -1.306355,0.69707 -2.356562,1.74243 -3.119141,3.08984 -0.769574,1.36425 -1.138672,3.01734 -1.138672,4.92578 0,1.89822 0.370088,3.5477 1.138672,4.91602 v 0.002 h 0.002 c 0.76266,1.34182 1.810752,2.38839 3.115235,3.0957 h 0.002 v 0.002 c 1.302684,0.69745 2.766853,1.04297 4.353515,1.04297 1.575871,0 3.032239,-0.34397 4.333985,-1.03516 h 0.002 c 1.31082,-0.70181 2.361818,-1.74515 3.125,-3.08789 l 0.002,-0.002 c 0.774915,-1.36921 1.146484,-3.02455 1.146484,-4.9336 0,-1.90805 -0.371771,-3.56171 -1.146484,-4.92578 l -0.002,-0.002 c -0.762597,-1.34645 -1.814541,-2.39147 -3.125,-3.08789 -1.302008,-0.6971 -2.759317,-1.04493 -4.335938,-1.04492 z m 0,1.25 c 1.395266,-1e-5 2.630156,0.30005 3.744141,0.89648 h 0.002 v 0.002 c 1.103597,0.58599 1.970287,1.43784 2.628906,2.60157 0.646265,1.13703 0.984375,2.56353 0.984375,4.31054 0,1.74702 -0.337488,3.17537 -0.984375,4.31836 -0.658032,1.15719 -1.52536,2.01015 -2.628906,2.60156 -1.114247,0.59164 -2.350078,0.88868 -3.746094,0.88868 -1.405056,0 -2.647397,-0.29978 -3.759765,-0.89454 l -0.0039,-0.002 c -1.098192,-0.59636 -1.960948,-1.4523 -2.619141,-2.60937 l -0.002,-0.002 c -0.641761,-1.14354 -0.976563,-2.56538 -0.976563,-4.30078 0,-1.74762 0.335026,-3.17327 0.976563,-4.31054 0.658949,-1.16431 1.522798,-2.01776 2.621094,-2.60352 1.113309,-0.59606 2.357069,-0.89649 3.763671,-0.89648 z m 0,2.63085 c -0.836585,0 -1.600645,0.20766 -2.224609,0.64063 -0.617278,0.42684 -1.077666,1.05748 -1.375,1.82812 v 0.002 c -0.292596,0.76806 -0.425781,1.67113 -0.425781,2.70898 0,1.03785 0.133925,1.94264 0.425781,2.71485 v 0.002 l 0.002,0.002 c 0.297482,0.76496 0.755415,1.39527 1.369141,1.82617 l 0.0039,0.002 0.002,0.002 c 0.624186,0.42707 1.386903,0.62891 2.222656,0.62891 0.835755,0 1.59472,-0.20205 2.214844,-0.63086 v -0.002 c 0.619171,-0.43015 1.08049,-1.06038 1.373047,-1.82617 v -0.002 c 0.297963,-0.77305 0.435547,-1.67855 0.435547,-2.7168 0,-1.03667 -0.135819,-1.93887 -0.433594,-2.70703 l -0.002,-0.002 c -0.292015,-0.77123 -0.751058,-1.40375 -1.373047,-1.83008 -0.619531,-0.43378 -1.379136,-0.64063 -2.214844,-0.64063 z m 0,1.25 c 0.637989,0 1.115278,0.14589 1.5,0.41602 l 0.0039,0.002 0.002,0.002 c 0.391711,0.26801 0.695192,0.65987 0.916015,1.24414 v 0.004 l 0.002,0.002 c 0.224662,0.5777 0.349609,1.33174 0.349609,2.25976 0,0.92802 -0.126139,1.68332 -0.351563,2.26758 v 0.002 0.002 c -0.220269,0.5782 -0.52375,0.97157 -0.917968,1.24609 -0.384758,0.26606 -0.864408,0.41016 -1.503907,0.41016 -0.637754,0 -1.120893,-0.14182 -1.511718,-0.40821 -0.389489,-0.2741 -0.694099,-0.67262 -0.919922,-1.25195 -3.97e-4,-0.001 -0.0016,-9.3e-4 -0.002,-0.002 -0.220171,-0.58482 -0.341797,-1.33894 -0.341797,-2.26563 0,-0.92837 0.123564,-1.683 0.34375,-2.26172 v -0.002 c 0.226415,-0.58603 0.530757,-0.98029 0.917969,-1.24805 h 0.002 c 0.391327,-0.27187 0.873731,-0.41797 1.511718,-0.41797 z"
           id="path9993" />
        <path
           style="color:#000000;-inkscape-font-specification:'Inter Heavy';fill:#93258e;-inkscape-stroke:none;paint-order:stroke fill markers"
           d="m 92.930006,122.85703 q 0,2.74205 -1.066352,4.6262 -1.066353,1.87614 -2.878349,2.84628 -1.811997,0.96212 -4.040914,0.96212 -2.244951,0 -4.056948,-0.97014 -1.803979,-0.97815 -2.870331,-2.85429 -1.058335,-1.88416 -1.058335,-4.61017 0,-2.74205 1.058335,-4.61819 1.066352,-1.88415 2.870331,-2.84628 1.811997,-0.97014 4.056948,-0.97014 2.228917,0 4.040914,0.97014 1.811996,0.96213 2.878349,2.84628 1.066352,1.87614 1.066352,4.61819 z m -4.586116,0 q 0,-1.47525 -0.392867,-2.48548 -0.384849,-1.01825 -1.146529,-1.5394 -0.753662,-0.52917 -1.860103,-0.52917 -1.10644,0 -1.86812,0.52917 -0.753663,0.52115 -1.146529,1.5394 -0.384849,1.01023 -0.384849,2.48548 0,1.47525 0.384849,2.4935 0.392866,1.01023 1.146529,1.53939 0.76168,0.52115 1.86812,0.52115 1.106441,0 1.860103,-0.52115 0.76168,-0.52916 1.146529,-1.53939 0.392867,-1.01825 0.392867,-2.4935 z"
           id="path9995" />
      </g>
      <g
         id="path9962">
        <path
           style="color:#000000;-inkscape-font-specification:'Inter Heavy';fill:#ffffff;-inkscape-stroke:none;paint-order:stroke fill markers"
           d="m 94.357422,114.02148 v 17.66993 h 0.625 5.082028 v -4.87305 h 1.84571 c 1.32821,0 2.52181,-0.24921 3.55664,-0.76367 1.03628,-0.51226 1.86635,-1.2647 2.44531,-2.22461 0.58892,-0.96823 0.87695,-2.11087 0.87695,-3.37891 0,-1.25602 -0.27883,-2.39316 -0.84765,-3.36914 -0.56475,-0.96897 -1.37145,-1.73435 -2.38086,-2.26562 -1.01533,-0.53438 -2.18931,-0.79493 -3.49024,-0.79493 z m 1.25,1.25 h 6.462888 c 1.13646,0 2.0955,0.22266 2.90821,0.6504 0.81861,0.43084 1.43196,1.01551 1.88281,1.78906 0.44675,0.76652 0.67773,1.66579 0.67773,2.74023 0,1.08312 -0.23722,1.97791 -0.69531,2.73047 v 0.002 h -0.002 c -0.45793,0.76007 -1.08535,1.33263 -1.92969,1.75 v 0.002 h -0.002 c -0.83596,0.41559 -1.8267,0.63281 -3,0.63281 h -1.84571 v -2.21484 h 0.94727 c 0.5961,0 1.14119,-0.10235 1.61523,-0.33594 l 0.002,-0.002 h 0.002 c 0.47021,-0.23511 0.85864,-0.59299 1.11719,-1.03907 0.26445,-0.44782 0.39062,-0.97153 0.39062,-1.52539 0,-0.55814 -0.12478,-1.08081 -0.39453,-1.52344 -0.26035,-0.44096 -0.65337,-0.78878 -1.125,-1.01171 -0.47242,-0.23119 -1.01423,-0.33399 -1.60742,-0.33399 h -2.197267 v 4.52149 h -1.763672 v 4.71484 h 1.763672 v 3.62305 h -3.207031 z m 4.457028,3.56055 h 0.94727 c 0.45154,0 0.79892,0.0772 1.0625,0.20703 l 0.006,0.004 0.004,0.002 c 0.27383,0.12909 0.4512,0.29206 0.58594,0.52149 l 0.002,0.004 0.004,0.006 c 0.13427,0.21908 0.21289,0.4946 0.21289,0.875 0,0.37403 -0.0772,0.65739 -0.21679,0.89258 l -0.002,0.002 -0.002,0.004 c -0.13701,0.23698 -0.3204,0.40824 -0.59766,0.54687 -0.26324,0.12906 -0.60865,0.20704 -1.05859,0.20704 h -0.94727 z m -1.763669,4.52149 h 0.513672 v 2.21484 h -0.513672 z"
           id="path9999" />
        <path
           style="color:#000000;-inkscape-font-specification:'Inter Heavy';fill:#93258e;-inkscape-stroke:none;paint-order:stroke fill markers"
           d="m 94.982521,131.06714 v -16.42022 h 7.087629 q 1.82804,0 3.19906,0.72159 1.37102,0.72159 2.13271,2.02848 0.76168,1.30688 0.76168,3.05473 0,1.76389 -0.78574,3.05474 -0.77771,1.29085 -2.18883,1.98839 -1.40309,0.69754 -3.27923,0.69754 h -4.233337 v -3.46364 h 3.335357 q 0.78573,0 1.33895,-0.2726 0.56124,-0.28062 0.8579,-0.79376 0.30467,-0.51313 0.30467,-1.21067 0,-0.70555 -0.30467,-1.20265 -0.29666,-0.50511 -0.8579,-0.7697 -0.55322,-0.2726 -1.33895,-0.2726 h -1.571466 v 12.86037 z"
           id="path10001" />
      </g>
      <g
         id="path9964">
        <path
           style="color:#000000;-inkscape-font-specification:'Inter Heavy';fill:#ffffff;-inkscape-stroke:none;paint-order:stroke fill markers"
           d="m 113.66406,114.02148 v 17.66993 h 0.625 7.72852 c 1.26202,0 2.38306,-0.21068 3.34375,-0.65821 0.94687,-0.44108 1.70934,-1.06974 2.24219,-1.87109 0.53932,-0.80287 0.8125,-1.73899 0.8125,-2.74609 0,-0.86632 -0.19629,-1.65958 -0.60157,-2.33789 -0.39365,-0.6643 -0.93838,-1.20051 -1.60547,-1.57813 -0.18137,-0.10412 -0.40868,-0.0918 -0.60156,-0.16992 0.12119,-0.0689 0.27877,-0.0828 0.39258,-0.16211 l 0.002,-0.002 0.002,-0.002 c 0.54875,-0.38845 0.98749,-0.88281 1.29492,-1.46484 v -0.002 c 0.31665,-0.58967 0.47461,-1.24979 0.47461,-1.94532 0,-0.94334 -0.25758,-1.81169 -0.77344,-2.53515 -0.51355,-0.72807 -1.26948,-1.27578 -2.21094,-1.64649 -0.94749,-0.37541 -2.07402,-0.54883 -3.38086,-0.54883 z m 1.25,1.25 h 6.49414 c 1.19467,0 2.16961,0.16288 2.92188,0.46094 v 0.002 c 0.76805,0.30242 1.29806,0.70485 1.65039,1.20507 l 0.002,0.002 c 0.36074,0.50592 0.54102,1.08622 0.54102,1.81054 0,0.51182 -0.10891,0.95136 -0.32617,1.35547 v 0.002 l -0.002,0.002 c -0.21543,0.40888 -0.51109,0.7458 -0.91015,1.0293 -0.39955,0.27833 -0.87017,0.4762 -1.4336,0.58984 l -0.50195,0.10156 v 1.27344 l 0.60156,0.0234 c 0.61436,0.0233 1.1485,0.1748 1.63672,0.45507 h 0.002 l 0.002,0.002 c 0.48577,0.27437 0.85864,0.63988 1.14843,1.1289 v 0.002 h 0.002 c 0.27824,0.4652 0.42383,1.01613 0.42383,1.69922 0,0.78885 -0.19821,1.45127 -0.59961,2.04882 v 0.002 l -0.002,0.002 c -0.39714,0.59799 -0.95905,1.06943 -1.73242,1.42969 -0.76044,0.35424 -1.69256,0.54297 -2.81445,0.54297 h -7.10352 z m 3.20703,2.2461 v 4.39258 h 0.625 1.82813 c 0.45583,0 0.88387,-0.0713 1.27148,-0.23047 0.38758,-0.15919 0.7277,-0.40957 0.9668,-0.74024 0.25449,-0.34993 0.375,-0.78205 0.375,-1.22461 0,-0.6569 -0.28316,-1.28684 -0.79883,-1.66601 -0.48526,-0.3626 -1.09349,-0.53125 -1.75,-0.53125 z m 1.25,1.25 h 1.26758 c 0.45373,0 0.7628,0.10237 1.00391,0.2832 l 0.002,0.002 0.004,0.002 c 0.21127,0.15535 0.28906,0.30149 0.28906,0.66015 0,0.23092 -0.0491,0.3698 -0.13672,0.49024 l -0.002,0.002 c -0.0922,0.1279 -0.21753,0.23007 -0.42774,0.31641 -0.21104,0.0867 -0.47232,0.13672 -0.79687,0.13672 h -1.20313 z m -1.25,4.65039 v 4.71484 h 0.625 2.08594 c 0.8257,0 1.52237,-0.14413 2.05664,-0.54101 l 0.002,-0.002 0.002,-0.002 c 0.52949,-0.40091 0.80859,-1.05592 0.80859,-1.74805 0,-0.48033 -0.11482,-0.9399 -0.36719,-1.32226 -0.24647,-0.37345 -0.60965,-0.66015 -1.03125,-0.83985 -0.41867,-0.18074 -0.88957,-0.25976 -1.40625,-0.25976 z m 1.25,1.25 h 1.52539 c 0.39062,0 0.69216,0.062 0.91407,0.1582 h 0.002 c 0.23051,0.0982 0.37222,0.21785 0.47852,0.37891 0.10041,0.15214 0.16015,0.34539 0.16015,0.63476 0,0.40678 -0.0942,0.58313 -0.31054,0.74805 -0.21435,0.15871 -0.63861,0.29492 -1.3086,0.29492 h -1.46094 z"
           id="path10005" />
        <path
           style="color:#000000;-inkscape-font-specification:'Inter Heavy';fill:#93258e;-inkscape-stroke:none;paint-order:stroke fill markers"
           d="m 114.28903,131.06714 v -16.42022 h 7.11971 q 1.87613,0 3.15095,0.50511 1.28283,0.50512 1.93226,1.42715 0.65745,0.92204 0.65745,2.17279 0,0.906 -0.40089,1.65165 -0.39286,0.74564 -1.10644,1.25076 -0.71357,0.49709 -1.66767,0.68952 v 0.16035 q 1.05833,0.0401 1.92424,0.53719 0.86591,0.48907 1.37904,1.35498 0.51313,0.8579 0.51313,2.02046 0,1.34697 -0.70555,2.39729 -0.69754,1.05032 -1.98839,1.65164 -1.29085,0.60133 -3.07879,0.60133 z m 4.45783,-3.55985 h 2.0846 q 1.12248,0 1.68372,-0.41692 0.56123,-0.42494 0.56123,-1.25076 0,-0.57728 -0.26458,-0.97816 -0.26458,-0.40088 -0.75366,-0.60934 -0.48106,-0.20846 -1.16257,-0.20846 h -2.14874 z m 0,-6.22173 h 1.82804 q 0.58529,0 1.03428,-0.1844 0.44899,-0.18441 0.69754,-0.52917 0.25656,-0.35278 0.25656,-0.85789 0,-0.76168 -0.5452,-1.16257 -0.5452,-0.4089 -1.37904,-0.4089 h -1.89218 z"
           id="path10007" />
      </g>
      <g
         id="path9966">
        <path
           style="color:#000000;-inkscape-font-specification:'Inter Heavy';fill:#ffffff;-inkscape-stroke:none;paint-order:stroke fill markers"
           d="m 127.64453,114.02148 0.49414,0.91993 5.95508,11.11914 v 5.63086 h 5.67578 v -5.63086 l 6.44727,-12.03907 h -6.40821 l -2.8789,5.98633 -2.87696,-5.98633 z m 2.08789,1.25 h 3.53516 l 3.20703,6.67188 h 0.91406 l 3.20703,-6.67188 h 3.53516 l -5.61133,10.47461 v 4.69532 h -3.17578 v -4.69532 z"
           id="path10011" />
        <path
           style="color:#000000;-inkscape-font-specification:'Inter Heavy';fill:#93258e;-inkscape-stroke:none;paint-order:stroke fill markers"
           d="m 128.68876,114.64692 h 4.97096 l 3.20708,6.67071 h 0.12828 l 3.20707,-6.67071 h 4.97097 l -6.0293,11.25683 v 5.16339 h -4.42576 v -5.16339 z"
           id="path10013" />
      </g>
      <g
         id="path9968">
        <path
           style="color:#000000;-inkscape-font-specification:'Inter Heavy';fill:#ffffff;-inkscape-stroke:none;paint-order:stroke fill markers"
           d="m 150.48047,114.02148 v 17.66993 h 0.625 5.08398 v -4.87305 h 1.84375 c 1.32752,0 2.52219,-0.24976 3.55664,-0.76367 1.03628,-0.51226 1.86635,-1.2647 2.44532,-2.22461 0.58891,-0.96823 0.87695,-2.11087 0.87695,-3.37891 0,-1.25602 -0.27688,-2.39316 -0.8457,-3.36914 -0.56474,-0.96897 -1.3734,-1.73435 -2.38282,-2.26562 -1.01532,-0.53438 -2.18931,-0.79493 -3.49023,-0.79493 z m 1.25,1.25 h 6.46289 c 1.13645,0 2.09549,0.22266 2.9082,0.6504 0.81861,0.43084 1.43393,1.01551 1.88477,1.78906 0.44675,0.76652 0.67578,1.66579 0.67578,2.74023 0,1.08312 -0.23723,1.97791 -0.69531,2.73047 v 0.002 c -0.45793,0.76007 -1.08731,1.33263 -1.93164,1.75 v 0.002 c -0.83597,0.41559 -1.82866,0.63281 -3.00196,0.63281 h -1.84375 v -2.21484 h 0.94532 c 0.5961,0 1.14118,-0.10235 1.61523,-0.33594 l 0.002,-0.002 h 0.002 c 0.4702,-0.23511 0.85864,-0.59299 1.11718,-1.03907 0.26446,-0.44782 0.39063,-0.97153 0.39063,-1.52539 0,-0.55814 -0.12478,-1.08081 -0.39453,-1.52344 -0.26035,-0.44097 -0.65337,-0.78878 -1.125,-1.01171 -0.47243,-0.23119 -1.01423,-0.33399 -1.60742,-0.33399 h -2.19532 v 4.52149 h -1.76367 v 4.71484 h 1.76367 v 3.62305 h -3.20898 z m 4.45898,3.56055 h 0.94532 c 0.45154,0 0.79892,0.0772 1.0625,0.20703 l 0.006,0.004 0.004,0.002 c 0.27382,0.12909 0.4512,0.29207 0.58594,0.52149 l 0.004,0.004 0.002,0.006 c 0.13427,0.21908 0.21289,0.4946 0.21289,0.875 0,0.37403 -0.0772,0.65739 -0.2168,0.89258 l -0.002,0.002 -0.002,0.004 c -0.137,0.23698 -0.31845,0.40824 -0.59571,0.54687 -0.2634,0.12947 -0.6098,0.20704 -1.06054,0.20704 h -0.94532 z m -1.76367,4.52149 h 0.51367 v 2.21484 h -0.51367 z"
           id="path10017" />
        <path
           style="color:#000000;-inkscape-font-specification:'Inter Heavy';fill:#93258e;-inkscape-stroke:none;paint-order:stroke fill markers"
           d="m 151.10616,131.06714 v -16.42022 h 7.08763 q 1.82803,0 3.19906,0.72159 1.37102,0.72159 2.1327,2.02848 0.76168,1.30688 0.76168,3.05473 0,1.76389 -0.78573,3.05474 -0.77772,1.29085 -2.18883,1.98839 -1.4031,0.69754 -3.27923,0.69754 h -4.23334 v -3.46364 h 3.33535 q 0.78574,0 1.33896,-0.2726 0.56124,-0.28062 0.85789,-0.79376 0.30467,-0.51313 0.30467,-1.21067 0,-0.70555 -0.30467,-1.20265 -0.29665,-0.50511 -0.85789,-0.7697 -0.55322,-0.2726 -1.33896,-0.2726 h -1.57146 v 12.86037 z"
           id="path10019" />
      </g>
      <g
         id="path9970">
        <path
           style="color:#000000;-inkscape-font-specification:'Inter Heavy';fill:#ffffff;-inkscape-stroke:none;paint-order:stroke fill markers"
           d="m 165.29687,114.02148 v 17.66993 h 0.625 5.08399 v -5.41993 h 0.54297 l 2.88281,5.41993 h 6.26953 l -3.63086,-6.66797 c 0.66419,-0.4234 1.35229,-0.82878 1.77344,-1.48438 0.59768,-0.92269 0.88477,-2.04543 0.88477,-3.3125 0,-1.25602 -0.27651,-2.37796 -0.85157,-3.32226 -0.56882,-0.93406 -1.38304,-1.66334 -2.39453,-2.1543 -1.01218,-0.49129 -2.17813,-0.72852 -3.47265,-0.72852 z m 1.25,1.25 h 6.4629 c 1.14284,0 2.11188,0.20752 2.92773,0.60352 0.81654,0.39633 1.42434,0.94413 1.87109,1.67773 0.44052,0.72338 0.66993,1.59938 0.66993,2.67383 0,1.08313 -0.23719,1.94393 -0.68555,2.63477 v 0.002 c -0.30834,0.47998 -0.82443,0.76806 -1.30664,1.08789 l -0.57031,-1.04492 h -0.3711 -4.53906 v -0.0977 h 0.94531 c 0.57484,0 1.0894,-0.0681 1.54492,-0.22656 l 0.002,-0.002 h 0.004 c 0.47465,-0.16952 0.88395,-0.4652 1.16016,-0.86719 0.29227,-0.41721 0.41601,-0.93185 0.41601,-1.48633 0,-0.55676 -0.12436,-1.07142 -0.4121,-1.49218 -0.27238,-0.41044 -0.67972,-0.71736 -1.1543,-0.89454 -0.4606,-0.17896 -0.98226,-0.25781 -1.56055,-0.25781 H 169.756 v 3.97656 h -1.76367 v 4.71289 h 1.76367 v 4.16993 h -3.20899 z m 4.45899,3.56055 h 0.94531 c 0.46642,0 0.83602,0.0661 1.11133,0.17383 l 0.006,0.002 0.006,0.002 c 0.27056,0.10049 0.43038,0.23082 0.55273,0.41601 l 0.004,0.004 0.004,0.006 c 0.1145,0.16572 0.19335,0.4106 0.19335,0.79101 0,0.37403 -0.0773,0.61204 -0.18945,0.77149 l -0.004,0.004 -0.002,0.002 c -0.11883,0.17343 -0.27999,0.29922 -0.55078,0.39648 -0.2818,0.0975 -0.65965,0.1582 -1.13086,0.1582 h -0.94531 z m -1.76367,3.97656 h 0.51367 v 2.21289 h -0.51367 z m 2.59765,1.34766 h 3.33399 l 0.21289,0.39258 c -0.74959,0.26208 -1.54637,0.47265 -2.53711,0.47265 h -0.55078 z m 4.16016,1.51758 2.5957,4.76758 h -3.41406 l -2.22852,-4.18946 c 1.13141,-0.011 2.1304,-0.23098 3.04688,-0.57812 z"
           id="path10023" />
        <path
           style="color:#000000;-inkscape-font-specification:'Inter Heavy';fill:#93258e;-inkscape-stroke:none;paint-order:stroke fill markers"
           d="m 165.9228,131.06714 v -16.42022 h 7.08763 q 1.82803,0 3.19906,0.66547 1.37102,0.66547 2.1327,1.91622 0.76168,1.25076 0.76168,2.99862 0,1.76389 -0.78573,2.97456 -0.77772,1.21067 -2.18883,1.82803 -1.40309,0.61736 -3.27923,0.61736 h -4.23334 v -3.46364 h 3.33536 q 0.78573,0 1.33895,-0.19242 0.56124,-0.20044 0.85789,-0.6334 0.30467,-0.43295 0.30467,-1.13049 0,-0.70556 -0.30467,-1.14653 -0.29665,-0.44899 -0.85789,-0.65745 -0.55322,-0.21648 -1.33895,-0.21648 h -1.57147 v 12.86037 z m 9.62122,-7.53663 4.10505,7.53663 h -4.84268 l -4.00884,-7.53663 z"
           id="path10025" />
      </g>
      <g
         id="path9972">
        <path
           style="color:#000000;-inkscape-font-specification:'Inter Heavy';fill:#ffffff;-inkscape-stroke:none;paint-order:stroke fill markers"
           d="m 180.37109,114.02148 v 17.66993 h 5.70703 v -17.66993 h -0.625 z m 1.25,1.25 h 3.20703 v 15.16993 h -3.20703 z"
           id="path10029" />
        <path
           style="color:#000000;-inkscape-font-specification:'Inter Heavy';fill:#93258e;-inkscape-stroke:none;paint-order:stroke fill markers"
           d="m 185.45384,114.64692 v 16.42022 h -4.45783 v -16.42022 z"
           id="path10031" />
      </g>
      <g
         id="path9974">
        <path
           style="color:#000000;-inkscape-font-specification:'Inter Heavy';fill:#ffffff;-inkscape-stroke:none;paint-order:stroke fill markers"
           d="m 195.42773,113.79688 c -1.56658,0 -3.01489,0.34714 -4.30664,1.04492 -1.3013,0.69748 -2.3446,1.74417 -3.10156,3.09179 -0.76898,1.36395 -1.13867,3.01611 -1.13867,4.92383 0,1.89638 0.36063,3.5426 1.11133,4.91016 l 0.002,0.002 c 0.74615,1.3488 1.78183,2.3982 3.07813,3.10156 h 0.002 c 1.2938,0.69889 2.7568,1.04493 4.35351,1.04493 1.26655,0 2.40464,-0.19271 3.40235,-0.59766 0.97333,-0.39506 1.80914,-0.92642 2.48828,-1.59375 0.667,-0.6555 1.19195,-1.37982 1.5625,-2.16797 v -0.002 c 0.36387,-0.77977 0.58268,-1.56141 0.64258,-2.33985 l 0.0508,-0.66796 -5.73242,-0.041 -0.082,0.53516 c -0.0438,0.28879 -0.1251,0.53405 -0.24219,0.74804 h -0.002 v 0.002 c -0.11273,0.20936 -0.25293,0.38041 -0.43164,0.52734 -0.17577,0.14452 -0.38646,0.26023 -0.64648,0.3457 -6.1e-4,2e-4 -0.001,-2e-4 -0.002,0 -0.25312,0.0778 -0.55579,0.1211 -0.91211,0.1211 -0.62362,0 -1.10537,-0.13995 -1.50586,-0.40235 h -0.002 c -0.39542,-0.26489 -0.70713,-0.65497 -0.9414,-1.23242 -4.1e-4,-0.001 -0.002,-9.3e-4 -0.002,-0.002 -0.22763,-0.58047 -0.35547,-1.34403 -0.35547,-2.29102 0,-0.89331 0.12532,-1.63165 0.35156,-2.21875 1.9e-4,-5e-4 -2e-4,-10e-4 0,-0.002 0.23067,-0.5838 0.54422,-0.99123 0.94726,-1.27734 0.40275,-0.28235 0.89389,-0.43165 1.54102,-0.43165 0.36771,0 0.67495,0.0528 0.93164,0.14649 l 0.004,0.002 0.004,0.002 c 0.26263,0.0917 0.46597,0.21574 0.63282,0.375 l 0.006,0.004 0.004,0.006 c 0.17654,0.16085 0.30979,0.34538 0.41016,0.57422 l 0.002,0.004 0.002,0.004 c 0.10642,0.23329 0.17639,0.5005 0.20313,0.8125 l 0.0488,0.57227 h 5.0957 l -0.57422,-0.57422 1.19922,-0.0508 v -0.625 h -0.15625 c -0.12719,-0.84524 -0.28462,-1.67248 -0.64062,-2.375 -0.43682,-0.86199 -1.02207,-1.60028 -1.7461,-2.19531 -0.72093,-0.59784 -1.55863,-1.05002 -2.49805,-1.35547 -0.94059,-0.30584 -1.96276,-0.45703 -3.05664,-0.45703 z m 0,1.25 c 0.98005,-1e-5 1.86802,0.13378 2.66993,0.39453 0.80309,0.26113 1.49196,0.63634 2.08593,1.1289 l 0.002,0.002 h 0.002 c 0.58988,0.48438 1.06125,1.07754 1.42578,1.79687 0.2619,0.51682 0.36749,1.16738 0.48242,1.81055 h -3.24023 c -0.0523,-0.21767 -0.0754,-0.44917 -0.16602,-0.64844 -4.3e-4,-9.9e-4 4.4e-4,-0.003 0,-0.004 -0.16579,-0.37505 -0.40322,-0.70782 -0.70312,-0.98242 -0.30047,-0.28533 -0.66514,-0.50183 -1.07031,-0.64453 -5.9e-4,-2.1e-4 -0.001,2.1e-4 -0.002,0 -0.41633,-0.15172 -0.8706,-0.22266 -1.35742,-0.22266 -0.84951,0 -1.62556,0.2136 -2.25977,0.65821 v 0.002 h -0.002 c -0.62113,0.43997 -1.08734,1.07538 -1.39062,1.8457 l -0.002,0.002 v 0.002 c -0.2972,0.77031 -0.43554,1.66114 -0.43554,2.66992 0,1.06029 0.13955,1.97726 0.44531,2.75391 v 0.004 l 0.002,0.002 c 0.30997,0.76579 0.78397,1.38983 1.41211,1.80859 l 0.002,0.002 c 0.62549,0.41047 1.3765,0.60743 2.19532,0.60743 0.46298,0 0.89563,-0.0559 1.29297,-0.17969 l 0.004,-0.002 h 0.006 c 0.39124,-0.12828 0.74592,-0.3177 1.05078,-0.56836 0.30126,-0.2477 0.54997,-0.55153 0.73633,-0.89649 v -0.002 c 0.10358,-0.18955 0.14141,-0.41325 0.20703,-0.62305 l 3.27149,0.0215 c -0.0884,0.40861 -0.14226,0.81039 -0.34375,1.24218 -0.30289,0.64345 -0.73428,1.24416 -1.30664,1.80664 -0.55023,0.54067 -1.23802,0.98361 -2.08204,1.32618 -0.81964,0.33267 -1.79287,0.50586 -2.93164,0.50586 -1.41723,0 -2.6574,-0.30048 -3.75781,-0.89454 h -0.002 c -1.08651,-0.58987 -1.93687,-1.4433 -2.58008,-2.60546 v -0.002 c -0.62779,-1.14439 -0.95703,-2.56912 -0.95703,-4.30664 0,-1.74762 0.33697,-3.17327 0.97851,-4.31054 v -0.002 c 0.65388,-1.16409 1.51282,-2.0162 2.60547,-2.60156 h 0.002 c 1.10286,-0.59574 2.32702,-0.89649 3.71093,-0.89648 z"
           id="path10035" />
        <path
           style="color:#000000;-inkscape-font-specification:'Inter Heavy';fill:#93258e;-inkscape-stroke:none;paint-order:stroke fill markers"
           d="m 202.90032,120.8045 h -4.52198 q -0.0481,-0.56124 -0.25656,-1.01824 -0.20045,-0.45701 -0.56124,-0.78574 -0.35278,-0.33674 -0.85789,-0.51313 -0.50512,-0.18441 -1.14653,-0.18441 -1.12248,0 -1.90019,0.54521 -0.7697,0.5452 -1.17059,1.56345 -0.39286,1.01824 -0.39286,2.44539 0,1.50732 0.40088,2.52557 0.4089,1.01023 1.1786,1.52336 0.7697,0.50511 1.85209,0.50511 0.61736,0 1.10644,-0.15233 0.48908,-0.16036 0.84987,-0.45701 0.3608,-0.29665 0.58529,-0.71357 0.23252,-0.42494 0.31269,-0.95411 l 4.52198,0.0321 q -0.0802,1.0423 -0.58529,2.12469 -0.50512,1.07437 -1.43517,1.98838 -0.92203,0.906 -2.28504,1.45922 -1.36301,0.55322 -3.16699,0.55322 -2.26098,0 -4.05694,-0.97014 -1.78795,-0.97014 -2.83025,-2.85429 -1.03428,-1.88416 -1.03428,-4.61017 0,-2.74205 1.05834,-4.61819 1.05833,-1.88415 2.85429,-2.84628 1.79596,-0.97014 4.00884,-0.97014 1.55544,0 2.86232,0.42494 1.30688,0.42494 2.29306,1.24274 0.98617,0.80979 1.5875,1.99641 0.60132,1.18661 0.72961,2.71799 z"
           id="path10037" />
      </g>
      <g
         id="path9976">
        <path
           style="color:#000000;-inkscape-font-specification:'Inter Heavy';fill:#ffffff;-inkscape-stroke:none;paint-order:stroke fill markers"
           d="m 204.29492,114.02148 v 17.66993 h 0.625 12.42774 v -4.8418 h -7.34375 v -1.57227 h 6.76757 v -4.84179 h -6.76757 v -1.57227 h 7.375 v -4.8418 z m 1.25,1.25 h 10.58399 v 2.3418 h -7.375 v 4.07227 h 6.76757 v 2.34179 h -6.76757 v 4.07227 h 7.34375 v 2.3418 h -10.55274 z"
           id="path10041" />
        <path
           style="color:#000000;-inkscape-font-specification:'Inter Heavy';fill:#93258e;-inkscape-stroke:none;paint-order:stroke fill markers"
           d="m 204.92075,131.06714 v -16.42022 h 11.83411 v 3.59192 h -7.37627 v 2.82223 h 6.76692 v 3.59192 h -6.76692 v 2.82223 h 7.3442 v 3.59192 z"
           id="path10043" />
      </g>
    </g>
  </g>
</svg>
