<?xml version="1.0" encoding="UTF-8" standalone="no"?>
<!-- Created with Inkscape (http://www.inkscape.org/) -->

<svg
   width="169.09961mm"
   height="19.61931mm"
   viewBox="0 0 169.09961 19.61931"
   version="1.1"
   id="svg5"
   xmlns="http://www.w3.org/2000/svg"
   xmlns:svg="http://www.w3.org/2000/svg">
  <defs
     id="defs2" />
  <g
     id="layer1"
     transform="translate(-26.935547,-111.05269)">
    <g
       aria-label="PRODUCT LIST"
       id="text1244"
       style="font-size:22.5778px;font-family:Montserrat;-inkscape-font-specification:Montserrat;fill:#ffa800;stroke:#ffffff;stroke-width:1.75;paint-order:stroke fill markers">
      <g
         id="path4108">
        <path
           style="color:#000000;-inkscape-font-specification:'Inter Heavy';fill:#ffffff;stroke:none;-inkscape-stroke:none"
           d="m 27.435547,111.77734 v 18.16993 h 0.875 5.332031 v -4.875 h 1.59375 c 1.359198,0 2.595317,-0.25483 3.669922,-0.78907 1.07324,-0.53107 1.94418,-1.31767 2.546875,-2.3164 l 0.002,-0.004 c 0.61433,-1.01097 0.910156,-2.2016 0.910156,-3.50586 0,-1.29233 -0.285667,-2.47822 -0.878906,-3.49609 -0.587515,-1.00806 -1.434844,-1.80998 -2.482422,-2.36133 -1.055849,-0.55571 -2.271651,-0.82227 -3.605469,-0.82227 z m 1.75,1.75 h 6.21289 c 1.103556,0 2.018835,0.21469 2.791016,0.6211 0.780454,0.41076 1.355146,0.96085 1.783203,1.69531 0.422334,0.72463 0.642578,1.57515 0.642578,2.61328 0,1.04601 -0.226419,1.89026 -0.658203,2.59961 v 0.002 l -0.002,0.002 c -0.433709,0.71987 -1.020401,1.25794 -1.826172,1.65625 h -0.002 c -0.796187,0.39582 -1.748307,0.60547 -2.890625,0.60547 h -1.59375 v -1.71289 h 0.697266 c 0.625011,0 1.208467,-0.10896 1.724609,-0.36329 h 0.002 l 0.0039,-0.002 c 0.50897,-0.25449 0.937835,-0.64859 1.220704,-1.13672 0.289133,-0.4902 0.425781,-1.06075 0.425781,-1.65039 0,-0.59417 -0.136357,-1.16678 -0.433594,-1.6543 -0.285169,-0.48086 -0.719485,-0.8643 -1.228516,-1.10546 -0.513992,-0.25126 -1.093364,-0.35938 -1.714843,-0.35938 h -2.447266 v 4.52149 h -1.763672 v 5.21289 h 1.763672 v 3.125 h -2.707031 z m 4.457031,3.56055 h 0.697266 c 0.422631,0 0.729687,0.0725 0.951172,0.18164 l 0.0078,0.004 0.0059,0.002 c 0.233686,0.11017 0.367036,0.23538 0.476563,0.42188 l 0.0039,0.008 0.0059,0.006 c 0.106734,0.17414 0.175781,0.40167 0.175781,0.74609 0,0.33763 -0.06934,0.57124 -0.183594,0.76367 l -0.002,0.004 -0.002,0.006 c -0.111759,0.19331 -0.253357,0.32679 -0.488281,0.44531 -0.221485,0.10914 -0.528541,0.1836 -0.951172,0.1836 h -0.697266 z m -1.763672,4.52149 h 0.01367 v 1.71289 h -0.01367 z"
           id="path4133" />
        <path
           style="color:#000000;-inkscape-font-specification:'Inter Heavy';stroke:none;-inkscape-stroke:none"
           d="m 28.310017,129.07251 v -16.42022 h 7.087633 q 1.828032,0 3.199056,0.72159 1.371025,0.72159 2.132705,2.02848 0.76168,1.30688 0.76168,3.05473 0,1.7639 -0.785733,3.05474 -0.777716,1.29085 -2.188828,1.98839 -1.403095,0.69754 -3.279234,0.69754 h -4.233337 v -3.46364 h 3.335357 q 0.785733,0 1.338953,-0.2726 0.561238,-0.28062 0.857892,-0.79375 0.304672,-0.51314 0.304672,-1.21068 0,-0.70555 -0.304672,-1.20265 -0.296654,-0.50511 -0.857892,-0.7697 -0.55322,-0.2726 -1.338953,-0.2726 H 32.76785 v 12.86037 z"
           id="path4135" />
      </g>
      <g
         id="path4110">
        <path
           style="color:#000000;-inkscape-font-specification:'Inter Heavy';fill:#ffffff;stroke:none;-inkscape-stroke:none"
           d="m 42.251953,111.77734 v 18.16993 h 0.875 5.332031 v -5.41993 h 0.142578 l 2.882813,5.41993 h 6.841797 l -3.658203,-6.71485 c 0.621684,-0.42553 1.182148,-0.91828 1.58789,-1.54883 l 0.002,-0.004 c 0.62785,-0.96919 0.925782,-2.14305 0.925782,-3.44727 0,-1.29234 -0.288663,-2.46465 -0.890625,-3.45312 -0.593234,-0.97416 -1.447564,-1.73816 -2.498047,-2.24805 -1.051449,-0.51035 -2.255214,-0.75391 -3.580078,-0.75391 z m 1.75,1.75 h 6.212891 c 1.112509,0 2.039825,0.20119 2.816406,0.57813 0.777548,0.37741 1.34524,0.89046 1.767578,1.58398 0.41361,0.67919 0.634766,1.50484 0.634766,2.54297 0,1.046 -0.228307,1.85371 -0.646485,2.49805 v 0.002 l -0.002,0.002 c -0.23949,0.37281 -0.666714,0.57692 -1.015625,0.8457 l -0.501953,-0.91992 H 52.748 51.001906 c 0.411452,-0.19256 0.811957,-0.42656 1.068359,-0.79883 0.327772,-0.46854 0.462891,-1.03864 0.462891,-1.62891 0,-0.59285 -0.13596,-1.16282 -0.458984,-1.63476 -0.302074,-0.45299 -0.756198,-0.79419 -1.269532,-0.98633 -0.4974,-0.19304 -1.047835,-0.27344 -1.648437,-0.27344 h -2.447266 v 3.97656 h -1.763672 v 5.21289 h 1.763672 v 3.66993 h -2.707031 z m 4.457031,3.56055 h 0.697266 c 0.443463,0 0.781627,0.0632 1.019531,0.15625 l 0.0078,0.002 0.0059,0.002 c 0.229115,0.0851 0.341396,0.18077 0.433594,0.32031 l 0.0039,0.008 0.0059,0.008 c 0.07906,0.11443 0.150391,0.30402 0.150391,0.64844 0,0.33763 -0.07065,0.51919 -0.146484,0.62696 l -0.002,0.004 -0.0039,0.006 c -0.08747,0.12766 -0.197971,0.21818 -0.427734,0.30078 -0.247268,0.0855 -0.596131,0.14453 -1.046875,0.14453 h -0.697266 z m -1.763672,3.97656 h 0.01367 v 1.71289 h -0.01367 z m 2.761719,1.34571 h 2.576172 c -0.617134,0.1655 -1.19761,0.36718 -1.978516,0.36718 h -0.402343 z m 3.611328,1.54297 2.310547,4.24414 h -2.84375 l -2,-3.76172 c 0.91554,-0.0413 1.753431,-0.21306 2.533203,-0.48242 z"
           id="path4139" />
        <path
           style="color:#000000;-inkscape-font-specification:'Inter Heavy';stroke:none;-inkscape-stroke:none"
           d="m 43.126656,129.07251 v -16.42022 h 7.087633 q 1.828032,0 3.199056,0.66547 1.371025,0.66547 2.132705,1.91623 0.76168,1.25075 0.76168,2.99861 0,1.76389 -0.785733,2.97456 -0.777716,1.21067 -2.188828,1.82803 -1.403095,0.61736 -3.279234,0.61736 h -4.233337 v -3.46364 h 3.335357 q 0.785733,0 1.338953,-0.19242 0.561238,-0.20044 0.857892,-0.6334 0.304672,-0.43295 0.304672,-1.13049 0,-0.70556 -0.304672,-1.14653 -0.296654,-0.44899 -0.857892,-0.65745 -0.55322,-0.21648 -1.338953,-0.21648 h -1.571467 v 12.86037 z m 9.621222,-7.53662 4.105054,7.53662 h -4.842681 l -4.008843,-7.53662 z"
           id="path4141" />
      </g>
      <g
         id="path4112">
        <path
           style="color:#000000;-inkscape-font-specification:'Inter Heavy';fill:#ffffff;stroke:none;-inkscape-stroke:none"
           d="m 66.121094,111.55273 c -1.622675,0 -3.128191,0.35649 -4.46875,1.07422 v -0.002 c -1.348752,0.71933 -2.437071,1.80289 -3.220703,3.1875 v 0.002 c -0.795182,1.40964 -1.171875,3.10823 -1.171875,5.04883 0,1.93057 0.378079,3.62391 1.171875,5.03711 v 0.002 l 0.002,0.002 c 0.783363,1.37825 1.867677,2.462 3.21289,3.1914 l 0.002,0.002 h 0.0039 c 1.340559,0.71772 2.846076,1.07422 4.46875,1.07421 1.611841,0 3.111925,-0.35335 4.451172,-1.06445 h 0.002 l 0.002,-0.002 c 1.35195,-0.72383 2.440516,-1.80406 3.224609,-3.18359 v -0.002 h 0.002 c 0.800521,-1.41445 1.179688,-3.11518 1.179688,-5.05664 0,-1.94146 -0.38025,-3.64081 -1.181641,-5.05078 h 0.002 c -0.783823,-1.38495 -1.87501,-2.46848 -3.228515,-3.1875 h -0.002 c -1.338642,-0.71585 -2.839823,-1.07227 -4.451172,-1.07227 z m 0,1.75 c 1.358994,0 2.552525,0.2909 3.628906,0.86719 h 0.002 c 1.061837,0.56381 1.889638,1.37909 2.527344,2.50586 0.62041,1.09155 0.953125,2.4729 0.953125,4.1875 0,1.71461 -0.331844,3.09756 -0.953125,4.19531 -0.637107,1.12038 -1.464937,1.93453 -2.527344,2.50391 -1.076747,0.57172 -2.270816,0.85937 -3.630859,0.85937 -1.370593,0 -2.569097,-0.2914 -3.644532,-0.86718 -1.055823,-0.57396 -1.882665,-1.39076 -2.519531,-2.50977 l -0.002,-0.002 c -2.71e-4,-4.8e-4 2.71e-4,-10e-4 0,-0.002 -0.616015,-1.09843 -0.945312,-2.47549 -0.945312,-4.17774 0,-1.71437 0.330135,-3.09595 0.945312,-4.1875 l 0.002,-0.002 c 0.637973,-1.12628 1.463768,-1.94084 2.519531,-2.50391 1.075435,-0.57578 2.27394,-0.86719 3.644532,-0.86719 z m 0,2.13086 c -0.877117,0 -1.696359,0.21951 -2.367188,0.68555 -0.662079,0.45858 -1.151736,1.1369 -1.46289,1.94336 l -0.002,0.002 c -0.307006,0.8059 -0.441406,1.73925 -0.441406,2.79883 0,1.05959 0.135435,1.99318 0.441406,2.80274 v 0.004 l 0.002,0.004 c 0.31171,0.80154 0.80075,1.47533 1.458984,1.9375 l 0.0039,0.004 0.0059,0.002 c 0.670745,0.45893 1.486322,0.67383 2.361328,0.67383 0.875006,0 1.690224,-0.21443 2.357422,-0.67579 h 0.002 v -0.002 c 0.664602,-0.46173 1.155981,-1.1391 1.46289,-1.94336 0.312994,-0.81123 0.453125,-1.74547 0.453125,-2.80664 0,-1.05973 -0.13997,-1.992 -0.453125,-2.79883 -0.306216,-0.80741 -0.799797,-1.48774 -1.466797,-1.94531 -0.666049,-0.46533 -1.481219,-0.68555 -2.355468,-0.68555 z m 0,1.75 c 0.598136,0 1.019786,0.13208 1.357422,0.36914 l 0.0039,0.004 0.0059,0.004 c 0.345281,0.23624 0.613786,0.57856 0.820313,1.125 l 0.002,0.004 0.002,0.004 c 0.209763,0.53939 0.333984,1.26409 0.333984,2.16992 0,0.90583 -0.123157,1.6313 -0.333984,2.17774 l -0.002,0.002 v 0.002 c -0.206295,0.54153 -0.477903,0.88755 -0.828125,1.13086 -0.337465,0.23292 -0.761883,0.36524 -1.361328,0.36524 -0.598441,0 -1.024846,-0.13064 -1.369141,-0.36524 -0.34342,-0.24234 -0.615216,-0.59308 -0.826172,-1.13281 -0.206495,-0.54778 -0.328125,-1.27386 -0.328125,-2.17969 0,-0.90582 0.120708,-1.6311 0.326172,-2.17187 0.212318,-0.5503 0.484502,-0.89851 0.826172,-1.13477 h 0.002 c 0.344744,-0.2395 0.771005,-0.37305 1.369141,-0.37305 z"
           id="path4145" />
        <path
           style="color:#000000;-inkscape-font-specification:'Inter Heavy';stroke:none;-inkscape-stroke:none"
           d="m 74.106954,120.8624 q 0,2.74205 -1.066352,4.6262 -1.066352,1.87614 -2.878349,2.84628 -1.811997,0.96212 -4.040913,0.96212 -2.244952,0 -4.056949,-0.97013 -1.803979,-0.97816 -2.870331,-2.8543 -1.058334,-1.88416 -1.058334,-4.61017 0,-2.74205 1.058334,-4.61819 1.066352,-1.88415 2.870331,-2.84627 1.811997,-0.97014 4.056949,-0.97014 2.228916,0 4.040913,0.97014 1.811997,0.96212 2.878349,2.84627 1.066352,1.87614 1.066352,4.61819 z m -4.586116,0 q 0,-1.47525 -0.392866,-2.48548 -0.384849,-1.01825 -1.146529,-1.5394 -0.753662,-0.52916 -1.860103,-0.52916 -1.106441,0 -1.868121,0.52916 -0.753662,0.52115 -1.146529,1.5394 -0.384848,1.01023 -0.384848,2.48548 0,1.47525 0.384848,2.4935 0.392867,1.01023 1.146529,1.5394 0.76168,0.52115 1.868121,0.52115 1.106441,0 1.860103,-0.52115 0.76168,-0.52917 1.146529,-1.5394 0.392866,-1.01825 0.392866,-2.4935 z"
           id="path4147" />
      </g>
      <g
         id="path4114">
        <path
           style="color:#000000;-inkscape-font-specification:'Inter Heavy';fill:#ffffff;stroke:none;-inkscape-stroke:none"
           d="m 75.285156,111.77734 v 18.16993 h 7.191406 c 1.781727,0 3.380432,-0.35044 4.75,-1.08008 l 0.002,-0.002 c 1.364983,-0.73315 2.449121,-1.81038 3.193359,-3.17382 v -0.002 c 0.749438,-1.37896 1.109375,-3.0018 1.109375,-4.82617 0,-1.82363 -0.362121,-3.44626 -1.117188,-4.82031 l -0.002,-0.002 c -0.744395,-1.36858 -1.833768,-2.44659 -3.208984,-3.17383 -1.376326,-0.73604 -2.986477,-1.08985 -4.789063,-1.08985 z m 1.75,1.75 h 5.378906 c 1.575529,0 2.882416,0.30395 3.964844,0.88282 l 0.002,0.002 h 0.002 c 1.091568,0.57649 1.902991,1.37908 2.494141,2.4668 v 0.002 l 0.002,0.002 c 0.590503,1.07322 0.902344,2.38488 0.902344,3.98047 0,1.59651 -0.309643,2.91045 -0.896484,3.99024 -0.591321,1.0833 -1.39937,1.88717 -2.480469,2.46875 -5.21e-4,2.7e-4 -0.0014,-2.8e-4 -0.002,0 -8.35e-4,4.4e-4 -0.0011,0.001 -0.002,0.002 -1.077756,0.57329 -2.371974,0.87305 -3.923829,0.87305 h -5.441406 z m 2.707031,2.03516 v 10.60156 h 0.875 1.699219 c 0.905782,0 1.725311,-0.14598 2.439453,-0.47265 0.768057,-0.34848 1.370743,-0.98309 1.742188,-1.77539 v -0.002 c 0.390619,-0.82322 0.542969,-1.83 0.542969,-3.05078 0,-1.22214 -0.154586,-2.23202 -0.552735,-3.05664 -0.379218,-0.79688 -0.996666,-1.43146 -1.779297,-1.77734 h -0.002 c -0.731626,-0.32555 -1.573746,-0.4668 -2.517578,-0.4668 z m 1.75,1.75 h 0.697266 c 0.765897,0 1.364674,0.11866 1.808594,0.31641 l 0.002,0.002 c 0.402516,0.17769 0.680127,0.44542 0.910156,0.92969 l 0.002,0.002 v 0.002 c 0.221335,0.45794 0.378907,1.23403 0.378907,2.29883 0,1.06617 -0.154864,1.84145 -0.373047,2.30078 l -0.002,0.004 v 0.002 c -0.227471,0.48744 -0.500413,0.75335 -0.884766,0.92774 v 0.002 h -0.002 c -0.429324,0.1966 -0.994455,0.31445 -1.712891,0.31445 h -0.824219 z"
           id="path4151" />
        <path
           style="color:#000000;-inkscape-font-specification:'Inter Heavy';stroke:none;-inkscape-stroke:none"
           d="M 82.477405,129.07251 H 76.15947 v -16.42022 h 6.253794 q 2.533588,0 4.377656,0.98618 1.852085,0.97815 2.854296,2.82222 1.010228,1.83605 1.010228,4.40171 0,2.56566 -1.002211,4.40973 -1.00221,1.83605 -2.83826,2.82222 -1.83605,0.97816 -4.337568,0.97816 z m -1.860103,-3.78435 h 1.69975 q 1.218688,0 2.07658,-0.39286 0.86591,-0.39287 1.3149,-1.35499 0.457008,-0.96213 0.457008,-2.67791 0,-1.71578 -0.465025,-2.67791 -0.457008,-0.96212 -1.346971,-1.35499 -0.881946,-0.39286 -2.164775,-0.39286 h -1.571467 z"
           id="path4153" />
      </g>
      <g
         id="path4116">
        <path
           style="color:#000000;-inkscape-font-specification:'Inter Heavy';fill:#ffffff;stroke:none;-inkscape-stroke:none"
           d="m 91.832031,111.77734 v 11.39454 c 0,1.38786 0.335276,2.65395 1.021485,3.7207 l 0.002,0.002 0.002,0.002 c 0.684242,1.04794 1.655246,1.86657 2.847656,2.42383 h 0.002 l 0.002,0.002 c 1.197964,0.55382 2.568225,0.81835 4.085938,0.81835 1.50779,0 2.87532,-0.265 4.07227,-0.81835 l 0.002,-0.002 h 0.002 c 1.19153,-0.55685 2.16155,-1.37505 2.84571,-2.42187 l 0.002,-0.002 c 0.69794,-1.0666 1.03906,-2.33518 1.03906,-3.7246 V 111.7774 h -6.20703 v 0.875 10.13477 c 0,0.37642 -0.0769,0.66752 -0.22265,0.92969 -0.15068,0.26548 -0.33608,0.45088 -0.60157,0.60156 -0.25427,0.14432 -0.54611,0.22266 -0.93164,0.22266 -0.376413,0 -0.667527,-0.0769 -0.929688,-0.22266 -0.265484,-0.15068 -0.450881,-0.33608 -0.601562,-0.60156 -0.14571,-0.26217 -0.222656,-0.55327 -0.222656,-0.92969 V 111.7774 Z m 1.75,1.75 h 2.708985 v 9.25977 c 0,0.63673 0.145817,1.25271 0.447265,1.79102 l 0.002,0.002 0.002,0.002 c 0.298309,0.52559 0.732221,0.95951 1.257813,1.25781 l 0.002,0.002 0.0039,0.002 c 0.538303,0.30146 1.152327,0.44727 1.789063,0.44727 0.640733,0 1.258113,-0.1465 1.794913,-0.45118 0.5256,-0.2983 0.96146,-0.73221 1.25977,-1.25781 l 0.002,-0.002 v -0.002 c 0.30145,-0.53831 0.44922,-1.15429 0.44922,-1.79102 v -9.25977 h 2.70703 v 9.64454 c 0,1.11115 -0.25548,2.00659 -0.7539,2.76757 h -0.002 c -0.50187,0.76864 -1.18756,1.35617 -2.12109,1.79297 -0.93008,0.42966 -2.03294,0.6582 -3.335933,0.6582 -1.3152,0 -2.42217,-0.22853 -3.351563,-0.6582 -0.932102,-0.43614 -1.615519,-1.02411 -2.117187,-1.79101 -0.488454,-0.76066 -0.744141,-1.65735 -0.744141,-2.76953 z"
           id="path4157" />
        <path
           style="color:#000000;-inkscape-font-specification:'Inter Heavy';stroke:none;-inkscape-stroke:none"
           d="m 102.42539,112.65229 h 4.45784 v 10.5192 q 0,1.87614 -0.89799,3.24717 -0.88996,1.363 -2.48548,2.10865 -1.59552,0.73762 -3.704168,0.73762 -2.124687,0 -3.720206,-0.73762 -1.595519,-0.74565 -2.485482,-2.10865 -0.881946,-1.37103 -0.881946,-3.24717 v -10.5192 h 4.457833 v 10.13435 q 0,0.76168 0.336743,1.36301 0.336743,0.59331 0.930051,0.93005 0.601327,0.33675 1.363007,0.33675 0.769698,0 1.363008,-0.33675 0.59331,-0.33674 0.93005,-0.93005 0.33674,-0.60133 0.33674,-1.36301 z"
           id="path4159" />
      </g>
      <g
         id="path4118">
        <path
           style="color:#000000;-inkscape-font-specification:'Inter Heavy';fill:#ffffff;stroke:none;-inkscape-stroke:none"
           d="m 116.85742,111.55273 c -1.60158,0 -3.09331,0.35743 -4.42187,1.07422 -4.7e-4,2.5e-4 -0.001,-2.5e-4 -0.002,0 -7.4e-4,4e-4 -10e-4,0.002 -0.002,0.002 -1.34204,0.71991 -2.424,1.8039 -3.20117,3.1875 -0.79436,1.40922 -1.16992,3.10725 -1.16992,5.04687 0,1.928 0.3674,3.61911 1.14258,5.03125 l 0.002,0.002 c 0.76666,1.38589 1.8397,2.47321 3.17773,3.19922 l 0.002,0.002 c 1.33239,0.71972 2.84018,1.07421 4.47265,1.07421 1.29209,0 2.46278,-0.19778 3.4961,-0.61718 0.99919,-0.40556 1.86343,-0.95382 2.56836,-1.64649 0.68579,-0.67397 1.23115,-1.42332 1.61523,-2.24023 v -0.002 c 0.37473,-0.80305 0.60159,-1.61588 0.66406,-2.42774 l 0.0723,-0.93555 -6.2168,-0.043 -0.11328,0.74804 c -0.0399,0.26321 -0.11487,0.47975 -0.2168,0.66602 v 0.002 l -0.002,0.002 c -0.098,0.18194 -0.21712,0.32654 -0.37109,0.45313 -0.14738,0.12118 -0.32681,0.22052 -0.55469,0.29687 -5.2e-4,1.6e-4 -0.001,-1.6e-4 -0.002,0 -0.22598,0.0702 -0.50492,0.11329 -0.84375,0.11329 -0.58471,0 -1.01358,-0.1284 -1.36915,-0.36133 h -0.002 c -0.34981,-0.23443 -0.62833,-0.57609 -0.84765,-1.11719 -2.5e-4,-6e-4 2.4e-4,-0.001 0,-0.002 -0.21196,-0.54133 -0.3379,-1.27329 -0.3379,-2.19727 0,-0.86868 0.12065,-1.57492 0.33204,-2.125 l 0.002,-0.002 c 0.21643,-0.54842 0.50063,-0.91018 0.86133,-1.16602 3.9e-4,-2.7e-4 -3.9e-4,-0.002 0,-0.002 0.35586,-0.24848 0.78967,-0.38477 1.39453,-0.38477 0.34375,0 0.62103,0.0488 0.8457,0.13086 l 0.006,0.002 0.006,0.002 c 0.23298,0.0814 0.40346,0.18715 0.54297,0.32031 l 0.006,0.008 0.008,0.006 c 0.15094,0.13753 0.26255,0.29175 0.34961,0.49024 l 0.002,0.006 0.004,0.006 c 0.0934,0.20474 0.15508,0.44333 0.17969,0.73047 l 0.0684,0.80078 h 5.32617 l -0.80469,-0.80469 1.67969,-0.0703 v -0.875 h -0.2207 c -0.1378,-0.78365 -0.26612,-1.57248 -0.60352,-2.23828 -0.45136,-0.89069 -1.05949,-1.65817 -1.81055,-2.27539 -0.74632,-0.6189 -1.6134,-1.08608 -2.58008,-1.4004 -0.96832,-0.31485 -2.01618,-0.46875 -3.13281,-0.46875 z m 0,1.75 c 0.95727,0 1.81762,0.13109 2.5918,0.38282 0.77583,0.25226 1.43532,0.61248 2.00391,1.08398 h 0.002 l 0.002,0.002 c 0.56286,0.4622 1.0133,1.02617 1.36328,1.7168 0.20768,0.40983 0.27243,0.94996 0.38477,1.44727 h -2.72852 c -0.048,-0.16332 -0.0555,-0.34231 -0.125,-0.4961 l -0.002,-0.002 c -0.17862,-0.40633 -0.43819,-0.76961 -0.76367,-1.06836 -0.32861,-0.31181 -0.72605,-0.54829 -1.16211,-0.70117 -0.44677,-0.16197 -0.92885,-0.23438 -1.4375,-0.23438 -0.88999,0 -1.72185,0.22608 -2.40235,0.70313 l -0.002,0.002 h -0.002 c -0.66433,0.47057 -1.16279,1.15012 -1.48047,1.95703 v 0.004 l -0.002,0.002 c -0.31134,0.80691 -0.45118,1.73 -0.45118,2.76172 0,1.08246 0.14173,2.02994 0.4629,2.8457 v 0.004 l 0.002,0.004 c 0.32491,0.80272 0.82976,1.47245 1.5039,1.92187 l 0.004,0.002 0.002,0.002 c 0.67043,0.43997 1.47433,0.64844 2.33204,0.64844 0.48354,0 0.94132,-0.0588 1.36718,-0.19141 l 0.006,-0.002 0.006,-0.002 c 0.41732,-0.13682 0.80221,-0.34144 1.13281,-0.61328 0.32528,-0.26744 0.59586,-0.59733 0.79688,-0.96875 v -0.002 c 0.0826,-0.1512 0.10419,-0.33142 0.16406,-0.49414 l 2.77149,0.0215 c -0.083,0.29548 -0.10074,0.57523 -0.2461,0.88672 -0.28936,0.6147 -0.70229,1.19035 -1.25586,1.73438 -0.52444,0.51532 -1.18185,0.94136 -2,1.27343 -0.78403,0.31823 -1.72469,0.48828 -2.83789,0.48828 -1.38218,1e-5 -2.57841,-0.29145 -3.64062,-0.86523 v 0.002 c -1.04546,-0.56726 -1.8575,-1.38223 -2.48047,-2.50781 v -0.002 c -0.60333,-1.09982 -0.92578,-2.47966 -0.92578,-4.18555 0,-1.71546 0.32938,-3.09758 0.94531,-4.18945 l 0.002,-0.002 c 0.6332,-1.12729 1.45312,-1.93903 2.50391,-2.50196 l 0.002,-0.002 c 1.06509,-0.57534 2.24636,-0.86524 3.59375,-0.86524 z"
           id="path4163" />
        <path
           style="color:#000000;-inkscape-font-specification:'Inter Heavy';stroke:none;-inkscape-stroke:none"
           d="m 124.32969,118.80987 h -4.52198 q -0.0481,-0.56123 -0.25656,-1.01824 -0.20044,-0.45701 -0.56124,-0.78574 -0.35278,-0.33674 -0.85789,-0.51313 -0.50512,-0.1844 -1.14653,-0.1844 -1.12248,0 -1.90019,0.5452 -0.7697,0.5452 -1.17058,1.56345 -0.39287,1.01824 -0.39287,2.44539 0,1.50733 0.40088,2.52557 0.4089,1.01023 1.1786,1.52336 0.7697,0.50512 1.85209,0.50512 0.61736,0 1.10644,-0.15234 0.48908,-0.16035 0.84987,-0.45701 0.3608,-0.29665 0.58529,-0.71357 0.23252,-0.42494 0.31269,-0.95411 l 4.52198,0.0321 q -0.0802,1.0423 -0.58529,2.12469 -0.50512,1.07437 -1.43517,1.98839 -0.92203,0.90599 -2.28504,1.45921 -1.36301,0.55322 -3.16698,0.55322 -2.26099,0 -4.05695,-0.97013 -1.78795,-0.97014 -2.83025,-2.8543 -1.03428,-1.88416 -1.03428,-4.61017 0,-2.74205 1.05834,-4.61819 1.05833,-1.88415 2.85429,-2.84627 1.79596,-0.97014 4.00885,-0.97014 1.55543,0 2.86231,0.42493 1.30688,0.42494 2.29306,1.24274 0.98617,0.80979 1.5875,1.99641 0.60132,1.18662 0.72961,2.71799 z"
           id="path4165" />
      </g>
      <g
         id="path4120">
        <path
           style="color:#000000;-inkscape-font-specification:'Inter Heavy';fill:#ffffff;stroke:none;-inkscape-stroke:none"
           d="m 125.02539,111.77734 v 5.3418 h 0.875 4.06445 v 12.82813 h 6.14453 v -12.82813 h 4.9375 v -5.3418 z m 1.75,1.75 h 12.52148 v 1.8418 h -4.9375 v 12.82813 h -2.64453 v -12.82813 h -4.93945 z"
           id="path4169" />
        <path
           style="color:#000000;-inkscape-font-specification:'Inter Heavy';stroke:none;-inkscape-stroke:none"
           d="m 125.90113,116.24421 v -3.59192 h 14.27148 v 3.59192 h -4.93889 v 12.8283 h -4.39369 v -12.8283 z"
           id="path4171" />
      </g>
      <g
         id="path4122">
        <path
           style="color:#000000;-inkscape-font-specification:'Inter Heavy';fill:#ffffff;stroke:none;-inkscape-stroke:none"
           d="m 145.45508,111.77734 v 18.16993 h 0.875 11.9707 v -5.3418 h -6.63867 v -12.82813 z m 1.75,1.75 h 2.70703 v 12.82813 h 6.63867 v 1.8418 h -9.3457 z"
           id="path4175" />
        <path
           style="color:#000000;-inkscape-font-specification:'Inter Heavy';stroke:none;-inkscape-stroke:none"
           d="m 146.33015,129.07251 v -16.42022 h 4.45783 v 12.8283 h 6.63865 v 3.59192 z"
           id="path4177" />
      </g>
      <g
         id="path4124">
        <path
           style="color:#000000;-inkscape-font-specification:'Inter Heavy';fill:#ffffff;stroke:none;-inkscape-stroke:none"
           d="m 158.34766,111.77734 v 18.16993 h 6.20703 v -18.16993 h -0.875 z m 1.75,1.75 h 2.70703 v 14.66993 h -2.70703 z"
           id="path4181" />
        <path
           style="color:#000000;-inkscape-font-specification:'Inter Heavy';stroke:none;-inkscape-stroke:none"
           d="m 163.6804,112.65229 v 16.42022 h -4.45783 v -16.42022 z"
           id="path4183" />
      </g>
      <g
         id="path4126">
        <path
           style="color:#000000;-inkscape-font-specification:'Inter Heavy';fill:#ffffff;stroke:none;-inkscape-stroke:none"
           d="m 172.43555,111.55273 c -1.39729,0 -2.67318,0.23694 -3.80469,0.73047 h -0.002 c -1.11997,0.49111 -2.04283,1.20583 -2.70704,2.12696 h -0.002 c -0.66832,0.92929 -1.00267,2.04476 -0.99805,3.24218 0,0.001 1e-5,0.003 0,0.004 -0.005,1.47146 0.51481,2.78225 1.53516,3.69141 l 0.002,0.002 0.004,0.002 c 0.48428,0.42567 1.04704,0.78002 1.67773,1.07227 h -3.63867 l 0.004,0.8789 c 0.006,1.49667 0.3283,2.80804 1.02539,3.86329 l 0.002,0.002 0.002,0.002 c 0.68704,1.02432 1.67295,1.79461 2.87304,2.27344 v 0.002 c 1.18841,0.47178 2.54711,0.69531 4.06055,0.69531 1.4709,0 2.76806,-0.20536 3.88672,-0.64648 1.12163,-0.44021 2.0437,-1.1151 2.68555,-2.01367 0.64941,-0.90917 0.96661,-2.02299 0.97265,-3.24609 v -0.006 -0.006 c -0.006,-0.71272 -0.12282,-1.39289 -0.35742,-2.02344 v -0.002 c -0.23476,-0.64491 -0.60842,-1.22943 -1.09766,-1.73243 l -0.002,-0.002 c -0.49554,-0.51432 -1.11183,-0.94179 -1.83203,-1.29297 -0.4483,-0.21859 -1.02432,-0.35268 -1.56055,-0.51172 h 4.62891 l -0.004,-0.8789 c -0.006,-1.21631 -0.32052,-2.33878 -0.94726,-3.28907 -0.6178,-0.95033 -1.50711,-1.68952 -2.60157,-2.1914 -1.1051,-0.50676 -2.38148,-0.7461 -3.80468,-0.7461 z m 0,1.75 c 1.22798,0 2.24438,0.20542 3.07422,0.58594 0.8391,0.38479 1.43938,0.89447 1.86914,1.55664 l 0.002,0.004 0.002,0.002 c 0.26884,0.40733 0.30614,0.95305 0.41016,1.45703 H 175.125 c -0.15473,-0.36605 -0.20938,-0.78764 -0.51367,-1.04297 -0.57702,-0.4888 -1.3339,-0.65625 -2.17578,-0.65625 -0.5288,0 -1.00296,0.0616 -1.4375,0.22657 -0.39969,0.14885 -0.77392,0.38204 -1.03711,0.73633 -0.23996,0.32302 -0.37292,0.72957 -0.38477,1.1289 -0.0153,0.32405 0.044,0.66417 0.19336,0.96289 l 0.008,0.0156 0.008,0.0156 c 0.16284,0.29515 0.39755,0.53006 0.66211,0.7168 l 0.008,0.006 0.008,0.004 c 0.26389,0.17852 0.55965,0.31621 0.89258,0.43555 0.33226,0.11912 0.70397,0.21867 1.12109,0.30469 h 0.004 c 0.002,3.2e-4 0.002,0.002 0.004,0.002 l 1.33985,0.28711 h 0.002 c 0.85505,0.18107 1.56618,0.41607 2.13086,0.69141 0.57245,0.27913 1.01255,0.59549 1.33984,0.93554 l 0.002,0.002 0.002,0.002 c 0.33164,0.34025 0.56145,0.70412 0.71094,1.11524 l 0.002,0.004 v 0.004 c 0.15823,0.42334 0.24261,0.89222 0.24805,1.42383 -0.005,0.93378 -0.22568,1.64798 -0.64453,2.23437 -0.42719,0.59805 -1.03364,1.06217 -1.90039,1.40234 h -0.002 c -0.85865,0.33883 -1.93825,0.5254 -3.24609,0.52539 -1.3401,0 -2.47347,-0.19992 -3.41211,-0.57226 h -0.002 c -0.91425,-0.36508 -1.57414,-0.89448 -2.0625,-1.62109 -0.32582,-0.49418 -0.40472,-1.27617 -0.51367,-2.02344 h 2.51367 c 0.0855,0.29416 0.0996,0.62001 0.26562,0.87305 0.31947,0.48681 0.78832,0.86436 1.33008,1.0996 l 0.002,0.002 h 0.002 c 0.54519,0.23365 1.15512,0.33594 1.8125,0.33594 0.54781,-1e-5 1.0441,-0.0647 1.49609,-0.23047 0.43189,-0.15836 0.82635,-0.40464 1.11328,-0.76563 0.27619,-0.34746 0.43644,-0.7968 0.44531,-1.24023 v -0.0195 -0.0176 c -0.009,-0.42854 -0.17678,-0.86788 -0.45507,-1.19727 -0.28999,-0.35393 -0.66444,-0.57846 -1.09766,-0.75976 -0.43877,-0.18921 -0.96313,-0.34199 -1.60352,-0.48243 h -0.002 l -1.63672,-0.35351 c -1.34913,-0.29264 -2.34755,-0.76831 -3.04492,-1.38086 h -0.002 c -0.64347,-0.57529 -0.94986,-1.28879 -0.94532,-2.37891 v -0.004 -0.004 c -0.005,-0.88414 0.21728,-1.58934 0.66993,-2.21875 0.46853,-0.64893 1.11095,-1.15993 1.98828,-1.54492 0.87825,-0.38307 1.90502,-0.58399 3.10547,-0.58399 z m 0,3.65625 c 0.6006,0 0.91656,0.13133 1.04492,0.24024 l 0.004,0.004 0.002,0.002 c 0.17464,0.14596 0.26272,0.29456 0.29101,0.64844 l 0.0312,0.40429 -0.96875,-0.20898 h -0.004 c -0.35975,-0.0739 -0.65862,-0.15511 -0.89063,-0.23828 -0.22998,-0.0825 -0.39397,-0.16748 -0.49414,-0.23438 -0.0805,-0.0586 -0.10785,-0.0971 -0.11914,-0.11523 -0.007,-0.0148 -0.0146,-0.0258 -0.0117,-0.0801 l 0.002,-0.0137 v -0.0137 c 0.002,-0.0772 0.01,-0.0914 0.0449,-0.13868 0.014,-0.0187 0.0676,-0.0779 0.24218,-0.14257 l 0.004,-0.002 h 0.004 c 0.152,-0.058 0.4299,-0.11133 0.81836,-0.11133 z m -1.95313,6.21094 1.44727,0.3125 -0.002,-0.002 c 0.57523,0.12614 1.01482,0.2613 1.29102,0.38086 l 0.006,0.004 0.004,0.002 c 0.27646,0.11553 0.40777,0.23155 0.42578,0.2539 l 0.008,0.01 0.01,0.0117 c 0.0313,0.0365 0.0297,0.048 0.0312,0.0879 -0.003,0.0723 -0.0105,0.10503 -0.0605,0.16797 -0.0445,0.0559 -0.13616,0.13606 -0.34571,0.21289 -0.18941,0.0695 -0.48896,0.12305 -0.89257,0.12305 -0.47498,-1e-5 -0.8433,-0.0765 -1.1211,-0.19532 h -0.002 c -0.26783,-0.11711 -0.42984,-0.25693 -0.55859,-0.45312 -0.12542,-0.19112 -0.21594,-0.44884 -0.23633,-0.83203 z"
           id="path4187" />
        <path
           style="color:#000000;-inkscape-font-specification:'Inter Heavy';stroke:none;-inkscape-stroke:none"
           d="m 174.6486,117.78361 q -0.0641,-0.80177 -0.60132,-1.25076 -0.52917,-0.44899 -1.61156,-0.44899 -0.68952,0 -1.13049,0.16837 -0.43296,0.16036 -0.64142,0.44097 -0.20846,0.28062 -0.21648,0.64142 -0.016,0.29665 0.10423,0.53718 0.12829,0.23252 0.40089,0.42494 0.2726,0.18441 0.69754,0.33674 0.42493,0.15234 1.01023,0.27261 l 1.34697,0.28863 q 1.363,0.28864 2.33314,0.76168 0.97014,0.47305 1.5875,1.11446 0.61737,0.6334 0.906,1.42715 0.29666,0.79375 0.30467,1.73182 -0.008,1.61957 -0.80978,2.74205 -0.80177,1.12247 -2.29306,1.70776 -1.48327,0.58529 -3.56787,0.58529 -2.14072,0 -3.73624,-0.63339 -1.5875,-0.6334 -2.46945,-1.9483 -0.87392,-1.32292 -0.88194,-3.38346 h 4.23334 q 0.0401,0.75366 0.37683,1.26679 0.33674,0.51313 0.94608,0.77772 0.61737,0.26458 1.46724,0.26458 0.71357,0 1.19463,-0.17639 0.48107,-0.17639 0.72961,-0.48908 0.24855,-0.31269 0.25657,-0.71357 -0.008,-0.37683 -0.24855,-0.65745 -0.23251,-0.28864 -0.7697,-0.51313 -0.53718,-0.23252 -1.4512,-0.43296 l -1.6356,-0.35278 q -2.18082,-0.47304 -3.43959,-1.57948 -1.25076,-1.11446 -1.24274,-3.0387 -0.008,-1.56345 0.83384,-2.73403 0.84987,-1.1786 2.34918,-1.83605 1.50732,-0.65745 3.45562,-0.65745 1.98839,0 3.43959,0.66546 1.4512,0.66547 2.23693,1.87614 0.79375,1.20265 0.80177,2.81421 z"
           id="path4189" />
      </g>
      <g
         id="path4128">
        <path
           style="color:#000000;-inkscape-font-specification:'Inter Heavy';fill:#ffffff;stroke:none;-inkscape-stroke:none"
           d="m 179.51367,111.77734 v 5.3418 h 0.875 4.06445 v 12.82813 h 6.14454 v -12.82813 h 4.9375 v -5.3418 z m 1.75,1.75 h 12.52149 v 1.8418 h -4.9375 v 12.82813 h -2.64454 v -12.82813 h -4.93945 z"
           id="path4193" />
        <path
           style="color:#000000;-inkscape-font-specification:'Inter Heavy';stroke:none;-inkscape-stroke:none"
           d="m 180.38926,116.24421 v -3.59192 h 14.27147 v 3.59192 h -4.93889 v 12.8283 h -4.39369 v -12.8283 z"
           id="path4195" />
      </g>
    </g>
  </g>
</svg>
