<?xml version="1.0" encoding="UTF-8" standalone="no"?>
<!-- Created with Inkscape (http://www.inkscape.org/) -->

<svg
   width="87.044945mm"
   height="19.119209mm"
   viewBox="0 0 87.044943 19.119209"
   version="1.1"
   id="svg5"
   xmlns="http://www.w3.org/2000/svg"
   xmlns:svg="http://www.w3.org/2000/svg">
  <defs
     id="defs2" />
  <g
     id="layer1"
     transform="translate(-73.113182,-113.69884)">
    <g
       aria-label="PROMO"
       id="text18806"
       style="font-size:22.5778px;font-family:Montserrat;-inkscape-font-specification:Montserrat;fill:#34a853;stroke:#ffffff;stroke-width:1.25;paint-order:stroke fill markers">
      <g
         id="path3440">
        <path
           style="color:#000000;-inkscape-font-specification:'Inter Heavy';fill:#ffffff;stroke:none;-inkscape-stroke:none"
           d="m 73.613281,114.42383 v 17.66992 h 0.625 5.082031 v -4.875 h 1.845704 c 1.328214,0 2.52181,-0.24921 3.55664,-0.76367 1.03594,-0.51266 1.866771,-1.26435 2.445313,-2.22461 0.588916,-0.96823 0.876953,-2.10891 0.876953,-3.37695 0,-1.25603 -0.278832,-2.39316 -0.847656,-3.36914 -0.564736,-0.96897 -1.371446,-1.73631 -2.38086,-2.26758 -1.015325,-0.53438 -2.189311,-0.79297 -3.490234,-0.79297 z m 1.25,1.25 h 6.462891 c 1.13645,0 2.095498,0.2207 2.908203,0.64844 0.818616,0.43085 1.431976,1.01747 1.882812,1.79101 0.446749,0.76653 0.677735,1.66578 0.677735,2.74024 0,1.08312 -0.237232,1.97595 -0.695313,2.72851 v 0.002 l -0.002,0.002 c -0.457928,0.76007 -1.085353,1.33263 -1.929687,1.75 h -0.002 c -0.835961,0.41559 -1.8267,0.63281 -3,0.63281 h -1.845704 v -2.21289 h 0.947266 c 0.5961,0 1.141186,-0.1043 1.615234,-0.33789 h 0.002 l 0.002,-0.002 c 0.469761,-0.23489 0.856687,-0.59163 1.115234,-1.03711 0.265274,-0.44828 0.392578,-0.9707 0.392578,-1.52539 0,-0.55815 -0.124776,-1.08082 -0.394531,-1.52344 -0.260349,-0.44097 -0.653368,-0.78879 -1.125,-1.01172 -0.472425,-0.23119 -1.014229,-0.33594 -1.607422,-0.33594 h -2.197266 v 4.52344 h -1.763671 v 4.71289 h 1.763671 v 3.625 h -3.207031 z m 4.457031,3.55859 h 0.947266 c 0.451543,0 0.798921,0.0791 1.0625,0.20899 l 0.0059,0.002 0.0039,0.002 c 0.273817,0.12909 0.451199,0.29207 0.585937,0.52149 l 0.002,0.006 0.0039,0.004 c 0.13427,0.21908 0.21289,0.49654 0.21289,0.87696 0,0.37403 -0.07715,0.65543 -0.216797,0.89062 l -0.002,0.004 -0.002,0.004 c -0.136289,0.23575 -0.318905,0.40667 -0.59375,0.54493 -4.66e-4,2.2e-4 -0.0015,-2.3e-4 -0.002,0 -0.263409,0.12946 -0.609803,0.20898 -1.060547,0.20898 h -0.947266 z m -1.763671,4.52344 h 0.513671 v 2.21289 h -0.513671 z"
           id="path3453" />
        <path
           style="color:#000000;-inkscape-font-specification:'Inter Heavy';stroke:none;-inkscape-stroke:none"
           d="m 74.238182,131.46855 v -16.42022 h 7.087634 q 1.828032,0 3.199056,0.72159 1.371024,0.7216 2.132704,2.02848 0.76168,1.30688 0.76168,3.05474 0,1.76389 -0.785733,3.05473 -0.777715,1.29085 -2.188828,1.98839 -1.403095,0.69754 -3.279233,0.69754 h -4.233338 v -3.46364 h 3.335357 q 0.785733,0 1.338954,-0.2726 0.561238,-0.28062 0.857892,-0.79375 0.304672,-0.51313 0.304672,-1.21067 0,-0.70556 -0.304672,-1.20266 -0.296654,-0.50511 -0.857892,-0.76969 -0.553221,-0.2726 -1.338954,-0.2726 h -1.571466 v 12.86036 z"
           id="path3455" />
      </g>
      <g
         id="path3442">
        <path
           style="color:#000000;-inkscape-font-specification:'Inter Heavy';fill:#ffffff;stroke:none;-inkscape-stroke:none"
           d="m 88.429687,114.42383 v 17.66992 h 0.625 5.083985 v -5.41992 h 0.541015 l 2.882813,5.41992 h 6.27148 l -3.63281,-6.66797 c 0.66398,-0.42301 1.35221,-0.82744 1.77344,-1.48242 0.59929,-0.92338 0.88672,-2.04572 0.88672,-3.31445 0,-1.25602 -0.27846,-2.37992 -0.85352,-3.32422 -0.56882,-0.93407 -1.38108,-1.66139 -2.392576,-2.15235 -1.012182,-0.49129 -2.178128,-0.72851 -3.472656,-0.72851 z m 1.25,1.25 h 6.462891 c 1.142847,0 2.109933,0.20556 2.925781,0.60156 0.81654,0.39633 1.426291,0.94607 1.873051,1.67969 0.44052,0.72338 0.66992,1.59938 0.66992,2.67383 0,1.08312 -0.23718,1.94392 -0.68555,2.63476 l -0.002,0.002 c -0.30852,0.48026 -0.82402,0.76795 -1.306643,1.08789 l -0.570312,-1.04688 h -0.371094 -4.537109 v -0.0977 h 0.945312 c 0.574844,0 1.089392,-0.0681 1.544922,-0.22656 h 0.002 l 0.002,-0.002 c 0.474645,-0.16952 0.885893,-0.46326 1.16211,-0.86524 0.292272,-0.41721 0.416015,-0.93184 0.416015,-1.48632 0,-0.55879 -0.124063,-1.07644 -0.414062,-1.49805 -0.272377,-0.40877 -0.679038,-0.71393 -1.152344,-0.89063 -0.461006,-0.17942 -0.981562,-0.25781 -1.560547,-0.25781 h -2.195312 v 3.97656 h -1.765625 v 4.71485 h 1.765625 v 4.16992 h -3.208985 z m 4.458985,3.55859 h 0.945312 c 0.466426,0 0.836019,0.0661 1.111328,0.17383 l 0.0059,0.002 0.0039,0.002 c 0.270556,0.10049 0.432326,0.23082 0.554688,0.41601 l 0.0039,0.006 0.0039,0.006 c 0.114506,0.16574 0.193359,0.41061 0.193359,0.79102 0,0.37403 -0.0792,0.61203 -0.191406,0.77148 l -0.002,0.002 -0.002,0.004 c -0.118833,0.17343 -0.279991,0.29922 -0.550781,0.39648 -0.281793,0.0975 -0.659657,0.15625 -1.13086,0.15625 h -0.945312 z m -1.765625,3.97656 h 0.515625 v 0.0977 2.11719 h -0.515625 z m 2.595703,1.34766 h 3.335937 l 0.214844,0.39453 c -0.74959,0.26209 -1.546375,0.47266 -2.537109,0.47266 h -0.552735 z m 4.164062,1.51953 2.595708,4.76758 h -3.414067 l -2.228516,-4.18945 c 1.131407,-0.011 2.130389,-0.23098 3.046875,-0.57813 z"
           id="path3459" />
        <path
           style="color:#000000;-inkscape-font-specification:'Inter Heavy';stroke:none;-inkscape-stroke:none"
           d="m 89.054864,131.46855 v -16.42022 h 7.087633 q 1.828033,0 3.199057,0.66547 1.371026,0.66547 2.132706,1.91623 0.76168,1.25076 0.76168,2.99861 0,1.76389 -0.78574,2.97456 -0.77771,1.21067 -2.188823,1.82803 -1.403095,0.61737 -3.279233,0.61737 h -4.233338 v -3.46364 h 3.335357 q 0.785733,0 1.338953,-0.19243 0.561238,-0.20044 0.857893,-0.63339 0.304672,-0.43296 0.304672,-1.1305 0,-0.70555 -0.304672,-1.14653 -0.296655,-0.44899 -0.857893,-0.65745 -0.55322,-0.21647 -1.338953,-0.21647 h -1.571466 v 12.86036 z m 9.621222,-7.53662 4.105054,7.53662 h -4.842681 l -4.008843,-7.53662 z"
           id="path3461" />
      </g>
      <g
         id="path3444">
        <path
           style="color:#000000;-inkscape-font-specification:'Inter Heavy';fill:#ffffff;stroke:none;-inkscape-stroke:none"
           d="m 112.04883,114.19922 c -1.58666,0 -3.04888,0.34551 -4.35156,1.04297 -1.30635,0.69707 -2.35656,1.74243 -3.11914,3.08984 v 0.002 c -0.76958,1.36424 -1.13868,3.01539 -1.13868,4.92383 0,1.89823 0.37009,3.54771 1.13868,4.91602 v 0.002 0.002 c 0.76266,1.34183 1.81271,2.38643 3.11718,3.09375 v 0.002 h 0.002 c 1.30268,0.69745 2.7649,1.04492 4.35156,1.04492 1.57587,0 3.03223,-0.34396 4.33398,-1.03516 h 0.002 v -0.002 c 1.31081,-0.70181 2.36376,-1.74516 3.12695,-3.08789 h 0.002 c 0.77491,-1.36921 1.14649,-3.0265 1.14649,-4.93555 0,-1.90905 -0.37291,-3.56131 -1.14844,-4.92578 h 0.002 c -0.76291,-1.348 -1.81717,-2.393 -3.1289,-3.08984 -1.30201,-0.6971 -2.75932,-1.04297 -4.33594,-1.04297 z m 0,1.25 c 1.39527,0 2.6321,0.30006 3.74609,0.89648 h 0.002 c 1.10359,0.58598 1.97028,1.43784 2.6289,2.60157 v 0.002 c 0.64626,1.13703 0.98438,2.56158 0.98438,4.30859 0,1.74702 -0.33749,3.17536 -0.98438,4.31836 -0.65862,1.15877 -1.52569,2.01181 -2.63086,2.60352 -1.11382,0.59106 -2.35076,0.88867 -3.74609,0.88867 -1.40506,0 -2.64544,-0.29977 -3.75781,-0.89453 l -0.004,-0.002 c -1.09819,-0.59637 -1.96094,-1.4523 -2.61914,-2.60937 l -0.002,-0.002 c -0.64176,-1.14353 -0.97657,-2.56733 -0.97657,-4.30274 0,-1.74762 0.33503,-3.17328 0.97657,-4.31054 0.65895,-1.16432 1.5228,-2.01581 2.62109,-2.60157 1.11331,-0.59606 2.35512,-0.89648 3.76172,-0.89648 z m 0,2.63086 c -0.83726,0 -1.60037,0.20694 -2.22461,0.64062 -0.61616,0.42682 -1.07607,1.0584 -1.37305,1.82813 v 0.002 c -0.29259,0.76807 -0.42578,1.66919 -0.42578,2.70703 0,1.03786 0.13392,1.94264 0.42578,2.71485 v 0.004 l 0.002,0.002 c 0.29748,0.76495 0.75542,1.3933 1.36914,1.82421 l 0.004,0.002 0.002,0.002 c 0.62418,0.42708 1.38494,0.63086 2.2207,0.63086 0.83575,0 1.59667,-0.204 2.2168,-0.63281 0.61959,-0.43046 1.08051,-1.06163 1.37304,-1.82813 0.2984,-0.7734 0.43555,-1.67976 0.43555,-2.71875 0,-1.03667 -0.13583,-1.93692 -0.43359,-2.70508 l -0.002,-0.002 c -0.29167,-0.77031 -0.75218,-1.40377 -1.37304,-1.83008 -0.61954,-0.43376 -1.3811,-0.64062 -2.2168,-0.64062 z m 0,1.25 c 0.63799,0 1.11722,0.14394 1.50195,0.41406 l 0.002,0.004 0.004,0.002 c 0.39171,0.26801 0.69324,0.65988 0.91406,1.24414 l 0.002,0.002 0.002,0.004 c 0.22466,0.57771 0.34961,1.32979 0.34961,2.25781 0,0.92803 -0.12615,1.68528 -0.35156,2.26953 v 0.002 c -0.22066,0.57923 -0.52468,0.97345 -0.91993,1.24804 -0.38453,0.26545 -0.86518,0.41016 -1.5039,0.41016 -0.63775,0 -1.11894,-0.14377 -1.50977,-0.41016 -0.38949,-0.27411 -0.69409,-0.67066 -0.91992,-1.25 -4e-4,-0.001 -0.002,-9.3e-4 -0.002,-0.002 -0.22017,-0.58481 -0.3418,-1.34088 -0.3418,-2.26758 0,-0.92915 0.12321,-1.68281 0.34375,-2.26172 0.22637,-0.58531 0.53105,-0.98049 0.91797,-1.24804 v -0.002 c 0.39133,-0.27186 0.87373,-0.41601 1.51172,-0.41601 z"
           id="path3465" />
        <path
           style="color:#000000;-inkscape-font-specification:'Inter Heavy';stroke:none;-inkscape-stroke:none"
           d="m 120.03521,123.25844 q 0,2.74205 -1.06635,4.62621 -1.06636,1.87613 -2.87835,2.84627 -1.812,0.96213 -4.04092,0.96213 -2.24495,0 -4.05695,-0.97014 -1.80397,-0.97816 -2.87033,-2.8543 -1.05833,-1.88415 -1.05833,-4.61017 0,-2.74205 1.05833,-4.61818 1.06636,-1.88416 2.87033,-2.84628 1.812,-0.97014 4.05695,-0.97014 2.22892,0 4.04092,0.97014 1.81199,0.96212 2.87835,2.84628 1.06635,1.87613 1.06635,4.61818 z m -4.58612,0 q 0,-1.47525 -0.39286,-2.48548 -0.38485,-1.01825 -1.14653,-1.5394 -0.75367,-0.52916 -1.86011,-0.52916 -1.10644,0 -1.86812,0.52916 -0.75366,0.52115 -1.14653,1.5394 -0.38485,1.01023 -0.38485,2.48548 0,1.47526 0.38485,2.4935 0.39287,1.01023 1.14653,1.5394 0.76168,0.52115 1.86812,0.52115 1.10644,0 1.86011,-0.52115 0.76168,-0.52917 1.14653,-1.5394 0.39286,-1.01824 0.39286,-2.4935 z"
           id="path3467" />
      </g>
      <g
         id="path3446">
        <path
           style="color:#000000;-inkscape-font-specification:'Inter Heavy';fill:#ffffff;stroke:none;-inkscape-stroke:none"
           d="m 121.46289,114.42383 v 0.625 17.04492 h 5.61133 v -7.17383 l 2.73242,7.04492 h 3.48438 l 2.73242,-6.99804 v 7.12695 h 5.61133 v -17.66992 h -6.5918 l -3.49414,8.51562 -3.49414,-8.51562 z m 1.25,1.25 h 4.50391 l 3.8164,9.30078 h 1.03125 l 3.81641,-9.30078 h 4.50391 v 15.16992 h -3.11133 v -9.49219 h -1.18164 l -3.6543,9.36328 h -1.77539 l -3.65625,-9.42773 h -1.18164 v 9.55664 h -3.11133 z"
           id="path3471" />
        <path
           style="color:#000000;-inkscape-font-specification:'Inter Heavy';stroke:none;-inkscape-stroke:none"
           d="m 122.08772,115.04833 h 5.54824 l 3.81642,9.30052 h 0.19242 l 3.81642,-9.30052 h 5.54824 v 16.42022 h -4.36162 v -9.49294 h -0.12828 l -3.65607,9.36466 h -2.6298 l -3.65606,-9.4288 h -0.12829 v 9.55708 h -4.36162 z"
           id="path3473" />
      </g>
      <g
         id="path3448">
        <path
           style="color:#000000;-inkscape-font-specification:'Inter Heavy';fill:#ffffff;stroke:none;-inkscape-stroke:none"
           d="m 151.04687,114.19922 c -1.58666,0 -3.04888,0.34551 -4.35156,1.04297 -1.30635,0.69707 -2.35655,1.74243 -3.11914,3.08984 v 0.002 c -0.76957,1.36424 -1.13867,3.01539 -1.13867,4.92383 0,1.89823 0.37009,3.54771 1.13867,4.91602 v 0.002 0.002 c 0.76267,1.34183 1.81271,2.38643 3.11719,3.09375 v 0.002 h 0.002 c 1.30268,0.69745 2.7649,1.04492 4.35156,1.04492 1.57588,0 3.03224,-0.34396 4.33399,-1.03516 h 0.002 v -0.002 c 1.31082,-0.70181 2.36377,-1.74516 3.12696,-3.08789 h 0.002 c 0.77491,-1.36921 1.14648,-3.0265 1.14648,-4.93555 0,-1.90905 -0.3729,-3.56131 -1.14843,-4.92578 h 0.002 c -0.76292,-1.348 -1.81717,-2.393 -3.12891,-3.08984 -1.30201,-0.6971 -2.75931,-1.04297 -4.33594,-1.04297 z m 0,1.25 c 1.39527,0 2.63211,0.30006 3.7461,0.89648 h 0.002 c 1.10359,0.58598 1.97028,1.43784 2.62891,2.60157 v 0.002 c 0.64626,1.13703 0.98437,2.56158 0.98437,4.30859 0,1.74702 -0.33749,3.17536 -0.98437,4.31836 -0.65863,1.15877 -1.52569,2.01181 -2.63086,2.60352 -1.11382,0.59106 -2.35077,0.88867 -3.7461,0.88867 -1.40505,0 -2.64544,-0.29977 -3.75781,-0.89453 l -0.004,-0.002 c -1.0982,-0.59637 -1.96095,-1.4523 -2.61914,-2.60937 l -0.002,-0.002 c -0.64175,-1.14353 -0.97656,-2.56733 -0.97656,-4.30274 0,-1.74762 0.33503,-3.17328 0.97656,-4.31054 0.65896,-1.16432 1.5228,-2.01581 2.6211,-2.60157 1.1133,-0.59606 2.35511,-0.89648 3.76171,-0.89648 z m 0,2.63086 c -0.83726,0 -1.60036,0.20694 -2.2246,0.64062 -0.61617,0.42682 -1.07607,1.0584 -1.37305,1.82813 v 0.002 c -0.29259,0.76806 -0.42578,1.66919 -0.42578,2.70703 0,1.03785 0.13393,1.94265 0.42578,2.71485 v 0.004 l 0.002,0.002 c 0.29749,0.76495 0.75542,1.3933 1.36914,1.82421 l 0.004,0.002 0.002,0.002 c 0.62419,0.42708 1.38495,0.63086 2.2207,0.63086 0.83576,0 1.59667,-0.204 2.2168,-0.63281 0.61959,-0.43046 1.08052,-1.06163 1.37305,-1.82813 0.29839,-0.7734 0.43555,-1.67976 0.43555,-2.71875 0,-1.03667 -0.13583,-1.93692 -0.4336,-2.70508 l -0.002,-0.002 c -0.29167,-0.77031 -0.75218,-1.40377 -1.37305,-1.83008 -0.61953,-0.43376 -1.38109,-0.64062 -2.2168,-0.64062 z m 0,1.25 c 0.63799,0 1.11723,0.14394 1.50196,0.41406 l 0.002,0.004 0.004,0.002 c 0.39171,0.26801 0.69324,0.65988 0.91406,1.24414 l 0.002,0.002 0.002,0.004 c 0.22466,0.57771 0.34961,1.32979 0.34961,2.25781 0,0.92803 -0.12615,1.68528 -0.35157,2.26953 v 0.002 c -0.22066,0.57923 -0.52468,0.97345 -0.91992,1.24804 -0.38453,0.26545 -0.86518,0.41016 -1.50391,0.41016 -0.63775,0 -1.11894,-0.14377 -1.50976,-0.41016 -0.38949,-0.27411 -0.6941,-0.67066 -0.91992,-1.25 -4e-4,-0.001 -0.002,-9.3e-4 -0.002,-0.002 -0.22016,-0.58481 -0.34179,-1.34088 -0.34179,-2.26758 0,-0.92915 0.12322,-1.68281 0.34375,-2.26172 0.22636,-0.58531 0.53104,-0.98049 0.91797,-1.24804 v -0.002 c 0.39132,-0.27186 0.87373,-0.41601 1.51171,-0.41601 z"
           id="path3477" />
        <path
           style="color:#000000;-inkscape-font-specification:'Inter Heavy';stroke:none;-inkscape-stroke:none"
           d="m 159.03321,123.25844 q 0,2.74205 -1.06635,4.62621 -1.06636,1.87613 -2.87835,2.84627 -1.812,0.96213 -4.04092,0.96213 -2.24495,0 -4.05694,-0.97014 -1.80398,-0.97816 -2.87034,-2.8543 -1.05833,-1.88415 -1.05833,-4.61017 0,-2.74205 1.05833,-4.61818 1.06636,-1.88416 2.87034,-2.84628 1.81199,-0.97014 4.05694,-0.97014 2.22892,0 4.04092,0.97014 1.81199,0.96212 2.87835,2.84628 1.06635,1.87613 1.06635,4.61818 z m -4.58612,0 q 0,-1.47525 -0.39286,-2.48548 -0.38485,-1.01825 -1.14653,-1.5394 -0.75367,-0.52916 -1.86011,-0.52916 -1.10644,0 -1.86812,0.52916 -0.75366,0.52115 -1.14653,1.5394 -0.38484,1.01023 -0.38484,2.48548 0,1.47526 0.38484,2.4935 0.39287,1.01023 1.14653,1.5394 0.76168,0.52115 1.86812,0.52115 1.10644,0 1.86011,-0.52115 0.76168,-0.52917 1.14653,-1.5394 0.39286,-1.01824 0.39286,-2.4935 z"
           id="path3479" />
      </g>
    </g>
  </g>
</svg>
